<svg width="150" height="150" version="1.1" viewBox="0.0 0.0 480.96062992125985 480.63517060367457" fill="none" stroke="none" stroke-linecap="square" stroke-miterlimit="10" xmlns:xlink="http://www.w3.org/1999/xlink" xmlns="http://www.w3.org/2000/svg"><clipPath id="p.0"><path d="m0 0l480.96063 0l0 480.63516l-480.96063 0l0 -480.63516z" clip-rule="nonzero"/></clipPath><g clip-path="url(#p.0)"><path fill="#000000" fill-opacity="0.0" d="m0 0l480.96063 0l0 480.63516l-480.96063 0z" fill-rule="evenodd"/><path fill="#783f04" d="m36.88297 202.62059l0 0c0 -111.902954 90.71527 -202.61823 202.61824 -202.61823l0 0c53.737686 0 105.27443 21.347218 143.27272 59.34551c37.99829 37.99829 59.34552 89.535034 59.34552 143.27272l0 0c0 111.90297 -90.71527 202.61824 -202.61824 202.61824l0 0c-111.90296 0 -202.61824 -90.71527 -202.61824 -202.61824zm48.474384 0l0 0c0 85.1313 69.01255 154.14384 154.14386 154.14384c85.1313 0 154.14384 -69.01254 154.14384 -154.14384l0 0c0 -85.131294 -69.01254 -154.14384 -154.14384 -154.14384l0 0c-85.1313 0 -154.14386 69.01254 -154.14386 154.14384z" fill-rule="evenodd"/><path fill="#783f04" d="m60.582375 293.79773l0 0c-27.059032 -54.6985 31.548141 -138.87862 130.9028 -188.02158l0 0c99.354645 -49.14296 201.83316 -44.639313 228.89221 10.059181l0 0c27.059021 54.698486 -31.548157 138.87862 -130.9028 188.02158l0 0c-99.354645 49.142975 -201.83318 44.639313 -228.89221 -10.059174zm41.312912 -20.434265l0 0c15.772171 31.88266 90.60447 27.039154 167.14261 -10.818268c76.53815 -37.857437 125.798706 -94.392944 110.02655 -126.275604c-15.772156 -31.88266 -90.60446 -27.039154 -167.14262 10.818283l0 0c-76.53815 37.85742 -125.798706 94.39293 -110.02654 126.27559z" fill-rule="evenodd"/><path fill="#783f04" d="m161.1266 91.221725l0 0c32.199966 -23.300064 94.698364 8.113441 139.59407 70.16403l0 0c44.89569 62.050583 55.18759 131.24095 22.98764 154.54103l0 0c-32.19998 23.300049 -94.698364 -8.113434 -139.59407 -70.16403l0 0c-44.89569 -62.050583 -55.187607 -131.24097 -22.98764 -154.54103zm19.790192 27.352127l0 0c-17.09433 12.369537 -3.417221 60.453003 30.54866 107.39743c33.965866 46.944427 75.35834 74.9729 92.45267 62.603363l0 0c17.0943 -12.369537 3.4172058 -60.453003 -30.548676 -107.397415l0 0c-33.965866 -46.944427 -75.35834 -74.972916 -92.45265 -62.60338z" fill-rule="evenodd"/><path fill="#783f04" d="m210.25507 202.62059l0 0c0 -17.762955 14.399719 -32.162674 32.16269 -32.162674l0 0c8.530075 0 16.710785 3.3885498 22.742462 9.420227c6.0316467 6.0316772 9.420227 14.212372 9.420227 22.742447l0 0c0 17.76297 -14.399719 32.16269 -32.16269 32.16269l0 0c-17.76297 0 -32.16269 -14.399719 -32.16269 -32.16269z" fill-rule="evenodd"/><path fill="#783f04" d="m172.70543 116.15354l11.410416 -7.8738556l128.01682 185.20233l-11.4104 7.8738403z" fill-rule="evenodd"/><path fill="#783f04" d="m220.51443 396.31125l43.80664 0l0 64.32535l-43.80664 0z" fill-rule="evenodd"/><path fill="#783f04" d="m360.56168 480.63263l-236.28784 0l47.257576 -51.65268l141.7727 0z" fill-rule="evenodd"/></g></svg>