<svg width="150" height="150" version="1.1" viewBox="0.0 0.0 480.0 480.0" fill="none" stroke="none" stroke-linecap="square" stroke-miterlimit="10" xmlns:xlink="http://www.w3.org/1999/xlink" xmlns="http://www.w3.org/2000/svg"><clipPath id="p.0"><path d="m0 0l480.0 0l0 480.0l-480.0 0l0 -480.0z" clip-rule="nonzero"/></clipPath><g clip-path="url(#p.0)"><path fill="#000000" fill-opacity="0.0" d="m0 0l480.0 0l0 480.0l-480.0 0z" fill-rule="evenodd"/><path fill="#cccccc" d="m9.496063 215.85564l221.00787 0l0 47.65355l-221.00787 0z" fill-rule="evenodd"/><path fill="#cccccc" d="m133.45062 205.65921l0 0c-0.8082123 -12.500885 19.034607 -24.179901 51.96257 -30.583939c32.92798 -6.4040375 73.86546 -6.5459595 107.203384 -0.37165833c33.33792 6.1743164 53.93747 17.71312 53.944214 30.216782l-106.566925 0.0061187744z" fill-rule="evenodd"/><path fill="#cccccc" d="m370.62427 205.65921l0 0c-0.60284424 -9.324646 10.310608 -18.337051 30.286804 -25.011002c19.976166 -6.67395 47.338654 -10.449371 75.93567 -10.4774475l0.32077026 34.755753z" fill-rule="evenodd"/><path fill="#cccccc" d="m109.375725 205.65921l0 0c0.6028595 -9.324646 -10.3106 -18.337051 -30.286781 -25.011002c-19.976181 -6.67395 -47.33866 -10.449371 -75.93568 -10.4774475l-0.32079053 34.755753z" fill-rule="evenodd"/><path fill="#cccccc" d="m133.45062 273.70563l0 0c-0.8082123 12.500885 19.034607 24.179901 51.96257 30.583923c32.92798 6.4040527 73.86546 6.5459595 107.203384 0.37164307c33.33792 -6.174286 53.93747 -17.713104 53.944214 -30.216766l-106.566925 -0.0061035156z" fill-rule="evenodd"/><path fill="#cccccc" d="m370.62427 273.70563l0 0c-0.60284424 9.324646 10.310608 18.337036 30.286804 25.010986c19.976166 6.67395 47.338654 10.449371 75.93567 10.4774475l0.32077026 -34.755737z" fill-rule="evenodd"/><path fill="#cccccc" d="m109.375725 273.70563l0 0c0.6028595 9.324646 -10.3106 18.337036 -30.286781 25.010986c-19.976181 6.67395 -47.33866 10.449371 -75.93568 10.4774475l-0.32079053 -34.755737z" fill-rule="evenodd"/><path fill="#cccccc" d="m249.49606 215.85564l221.00787 0l0 47.65355l-221.00787 0z" fill-rule="evenodd"/></g></svg>