<svg version="1.1" viewBox="0.0 0.0 288.0 288.0" fill="none" stroke="none" stroke-linecap="square" stroke-miterlimit="10" xmlns:xlink="http://www.w3.org/1999/xlink" xmlns="http://www.w3.org/2000/svg"><clipPath id="p.0"><path d="m0 0l288.0 0l0 288.0l-288.0 0l0 -288.0z" clip-rule="nonzero"/></clipPath><g clip-path="url(#p.0)"><path fill="#000000" fill-opacity="0.0" d="m0 0l288.0 0l0 288.0l-288.0 0z" fill-rule="evenodd"/><path fill="#df8f76" d="m0.034387663 123.81304l94.66511 -21.920128l50.669113 9.691391l-73.80754 46.90889l-61.445984 -25.455933" fill-rule="evenodd"/><path fill="#a83a24" d="m53.675964 130.88464l91.62395 -19.3553l-0.8747864 44.77002l-89.11408 18.883545" fill-rule="evenodd"/><path fill="#d16a51" d="m0.007979997 123.81886l0.24274276 43.483017l55.061394 7.873108l0 -44.770004z" fill-rule="evenodd"/><path fill="#df8f76" d="m142.67703 113.68256l94.6651 -21.920128l50.66913 9.691391l-73.807556 46.90889l-61.445984 -25.455925" fill-rule="evenodd"/><path fill="#a83a24" d="m196.3186 120.754166l91.62396 -19.3553l-0.8747864 44.770004l-89.11409 18.88356" fill-rule="evenodd"/><path fill="#d16a51" d="m142.64955 113.68714l-0.439682 43.455544l55.74382 7.900589l0 -44.77001z" fill-rule="evenodd"/><path fill="#df8f76" d="m73.54903 146.48291l102.29547 -21.036179l50.66913 9.691391l-73.807556 46.908905l-61.445984 -25.455933" fill-rule="evenodd"/><path fill="#a83a24" d="m134.82097 154.43846l91.62395 -19.3553l-0.8747864 44.77002l-89.11409 18.88356" fill-rule="evenodd"/><path fill="#d16a51" d="m73.41621 146.50124l0.219841 43.625l62.819992 8.601334l0 -44.770004z" fill-rule="evenodd"/></g></svg>