<svg width="150" height="150" version="1.1" viewBox="0.0 0.0 288.0 288.0" fill="none" stroke="none" stroke-linecap="square" stroke-miterlimit="10" xmlns:xlink="http://www.w3.org/1999/xlink" xmlns="http://www.w3.org/2000/svg"><clipPath id="p.0"><path d="m0 0l288.0 0l0 288.0l-288.0 0l0 -288.0z" clip-rule="nonzero"/></clipPath><g clip-path="url(#p.0)"><path fill="#000000" fill-opacity="0.0" d="m0 0l288.0 0l0 288.0l-288.0 0z" fill-rule="evenodd"/><path fill="#b7b7b7" d="m31.485144 170.187l112.44909 -37.564957l112.4241 37.564957l-112.24411 54.850784z" fill-rule="evenodd"/><path fill="#b0a066" d="m77.9427 108.61306l66.35152 -21.642548l65.796555 21.642548l-66.27652 34.331367z" fill-rule="evenodd"/><path fill="#d9d9d9" d="m143.99924 20.531187l0 87.3538l-53.75718 -15.692551z" fill-rule="evenodd"/><path fill="#f6d342" d="m143.99924 128.41681l0 61.3284l-101.0197 -34.984344l34.883167 -46.147804z" fill-rule="evenodd"/><path fill="#d9d9d9" d="m143.99924 211.51837l0 55.566467l-144.00244 -55.472443l31.488346 -41.4254z" fill-rule="evenodd"/><path fill="#666666" d="m143.99924 20.53118l0 87.3538l53.75717 -15.692551z" fill-rule="evenodd"/><path fill="#825a2a" d="m143.99924 128.4168l0 61.328415l101.0197 -34.98436l-34.883163 -46.147797z" fill-rule="evenodd"/><path fill="#666666" d="m143.99924 211.51837l0 55.566467l144.00244 -55.472443l-31.643341 -41.4254z" fill-rule="evenodd"/></g></svg>