<svg width="150" height="150" version="1.1" viewBox="0.0 0.0 288.0 288.0" fill="none" stroke="none" stroke-linecap="square" stroke-miterlimit="10" xmlns:xlink="http://www.w3.org/1999/xlink" xmlns="http://www.w3.org/2000/svg"><clipPath id="p.0"><path d="m0 0l288.0 0l0 288.0l-288.0 0l0 -288.0z" clip-rule="nonzero"/></clipPath><g clip-path="url(#p.0)"><path fill="#000000" fill-opacity="0.0" d="m0 0l288.0 0l0 288.0l-288.0 0z" fill-rule="evenodd"/><path fill="#000000" d="m17.60633 143.99178l0 0c0 -69.80531 56.588387 -126.39371 126.3937 -126.39371l0 0c33.521698 0 65.670425 13.316441 89.37384 37.01986c23.70343 23.703419 37.019867 55.852146 37.019867 89.37384l0 0c0 69.80531 -56.588394 126.39369 -126.39371 126.39369l0 0c-69.80531 0 -126.3937 -56.58838 -126.3937 -126.39369z" fill-rule="evenodd"/><path fill="#81181a" d="m30.56531 144.0059l0 0c0 -62.656044 50.79277 -113.448814 113.44882 -113.448814l0 0c30.088501 0 58.94464 11.952608 80.22043 33.228386c21.275787 21.275784 33.228394 50.13193 33.228394 80.22043l0 0c0 62.65605 -50.79277 113.44884 -113.44882 113.44884l0 0c-62.65605 0 -113.44882 -50.792786 -113.44882 -113.44884z" fill-rule="evenodd"/><path fill="#ffffff" d="m213.0284 77.76582c0.5127716 -13.900639 -1.2782898 -65.01949 -7.1750946 -67.154205c-5.896805 -2.134717 -19.20523 35.48553 -28.205704 54.345905c-9.000488 18.860374 -18.746033 48.383507 -25.797165 58.816353c-7.051117 10.432854 -9.838821 9.224968 -16.509598 3.7807388c-6.670761 -5.444214 -14.211777 -23.714188 -23.514984 -36.44606c-9.3032 -12.731865 -25.63044 -27.812702 -32.304214 -39.94514c-6.6737747 -12.132439 -4.8724747 -29.13735 -7.738426 -32.84948c-2.865944 -3.7121325 -6.7640457 -1.3246441 -9.457268 10.576687c-2.693222 11.901335 -5.240799 39.62918 -6.7020607 60.831306c-1.4612579 21.202118 -12.822144 50.768585 -2.065506 66.38144c10.756641 15.612869 47.41094 26.035492 66.60533 27.29573c19.194397 1.2602539 37.40419 -9.222549 48.561035 -19.734238c11.15686 -10.511688 12.704788 -31.727661 18.380112 -43.3359c5.6753387 -11.608238 11.351257 -19.219673 15.6718445 -26.31353c4.320587 -7.093857 9.738937 -2.3489685 10.251694 -16.249603z" fill-rule="evenodd"/><path fill="#ffffff" d="m119.96665 198.29715c-7.8678207 6.9650726 -42.49814 17.669342 -49.3338 21.861145c-6.8356705 4.1917877 13.898224 -0.28948975 8.319794 3.2896423c-5.57843 3.5791168 -38.53323 13.445038 -41.790375 18.185104c-3.257141 4.740082 19.700542 7.3135376 22.247517 10.25531c2.546978 2.9417877 -5.030758 5.2456207 -6.965664 7.3953705c-1.934906 2.1497803 -9.1726 2.6944275 -4.643776 5.5032043c4.528824 2.8087769 22.472603 9.515045 31.816727 11.349457c9.344131 1.8344116 16.967598 1.8638916 24.248024 -0.3430481c7.280426 -2.2069397 14.945427 -7.753479 19.434532 -12.89859c4.489105 -5.1450806 4.056984 -12.5260315 7.500099 -17.972046c3.4431 -5.4460297 2.6137695 -8.577393 13.158569 -14.704102c10.544785 -6.1266937 39.179 -14.059509 50.11017 -22.056122c10.931168 -7.9966125 12.220306 -17.475555 15.476852 -25.923538c3.256546 -8.447998 1.2897339 -18.234467 4.062393 -24.764404c2.7726746 -6.5299377 6.5437775 -10.626038 12.573593 -14.415207c6.0298004 -3.7891693 17.722305 -6.780899 23.605255 -8.319794c5.882965 -1.5389099 10.345581 0.012039185 11.692505 -0.9135895c1.3468933 -0.92562866 -1.6333923 -2.4193878 -3.611023 -4.640167c-1.9776459 -2.2207794 -5.8919983 -5.2570496 -8.2548065 -8.684517c-2.3628082 -3.4274597 -2.5168915 -9.4650955 -5.9220734 -11.880264c-3.4051971 -2.4151764 -9.559586 -3.820465 -14.509094 -2.6107712c-4.9495087 1.2096939 -9.351349 5.886574 -15.187973 9.868927c-5.836609 3.9823608 -14.833481 12.848618 -19.831741 14.025223c-4.9982605 1.17659 -7.62648 -5.7565765 -10.157806 -6.9656677c-2.5313263 -1.2090912 2.6438751 -3.3359833 -5.0301514 -0.28888702c-7.6740265 3.047104 -27.535873 11.929024 -41.014008 18.571495c-13.478149 6.6424866 -36.501434 15.09227 -39.854874 21.283371c-3.3534393 6.191101 16.090721 9.897827 19.734245 15.863235c3.6435242 5.9654083 9.994713 12.964172 2.126892 19.92923z" fill-rule="evenodd"/><path fill="#ffffff" d="m64.56505 71.838c-0.9593315 -1.0610352 -2.475357 -1.120018 -5.755974 -6.366234c-3.280613 -5.246216 -11.26218 -22.187332 -13.927719 -25.111057c-2.665535 -2.9237251 -2.2917938 2.2352219 -2.0655022 7.5687065c0.22628784 5.333481 1.2885323 15.86142 3.4232483 24.432182c2.134716 8.57077 7.820877 22.493668 9.385052 26.992401" fill-rule="evenodd"/><path fill="#ffffff" d="m60.437355 92.47349c-0.9599304 -0.74568176 -2.4783669 0.45679474 -5.7595825 -4.47406c-3.2812195 -4.930855 -11.088253 -21.959839 -13.927719 -25.111057c-2.83947 -3.1512222 -3.364872 1.1856194 -3.1090927 6.203739c0.25578308 5.01812 1.875927 16.396454 4.643776 23.904976c2.7678528 7.508522 9.969437 17.621796 11.963322 21.146156" fill-rule="evenodd"/><path fill="#ffffff" d="m55.280334 107.33139c-0.30272293 -0.24494934 1.8079185 2.2213745 -1.8163452 -1.4696884c-3.6242638 -3.6910706 -16.431961 -18.647331 -19.929237 -20.67672c-3.4972782 -2.029396 -2.2544842 4.044945 -1.0544205 8.500343c1.2000618 4.455406 5.143303 12.873299 8.254799 18.232063c3.1114998 5.358757 8.6784935 11.60041 10.414192 13.920494" fill-rule="evenodd"/><path fill="#ffffff" d="m57.739315 123.96242c-0.34425354 -0.18296051 2.2875824 2.0564804 -2.065506 -1.0977478c-4.3530884 -3.1542282 -20.244602 -16.432564 -24.05303 -17.82763c-3.808426 -1.3950577 -1.0014572 5.479126 1.2024708 9.457275c2.20393 3.9781418 8.289707 10.492432 12.021099 14.411598c3.731392 3.919159 8.639374 7.586151 10.367249 9.103378" fill-rule="evenodd"/><path fill="#ffffff" d="m59.165394 132.77019c-0.37073135 -0.119766235 2.8821983 1.5250549 -2.224392 -0.71858215c-5.1065865 -2.2436523 -24.596485 -12.368362 -28.415144 -12.743309c-3.818657 -0.3749466 2.370638 7.065567 5.5032024 10.493629c3.1325607 3.42807 9.111816 7.200989 13.292175 10.074768c4.1803627 2.873764 9.824993 5.973221 11.789993 7.167877" fill-rule="evenodd"/><path fill="#ffffff" d="m58.93103 137.46611c-0.38938904 0.018051147 2.8460884 0.64094543 -2.3363304 0.10832214c-5.1824226 -0.5326233 -24.65306 -4.0142517 -28.758194 -3.3040771c-4.105131 0.7101593 0.25758743 4.6991425 4.1274014 7.565094c3.869814 2.8659515 13.702631 7.3087006 19.091482 9.6306c5.388851 2.3218842 11.034687 3.5839386 13.241623 4.30072" fill-rule="evenodd"/><path fill="#ffffff" d="m65.05105 149.6944c-0.38397217 0.06439209 3.23909 0.35508728 -2.303833 0.38638306c-5.542923 0.031295776 -27.198833 -1.6845398 -30.953695 -0.1986084c-3.7548618 1.4859314 3.6092205 6.5347443 8.4245205 9.114227c4.8153 2.5794678 14.935192 4.8146973 20.467281 6.36261c5.5320854 1.5479279 10.604374 2.4374542 12.725246 2.924942" fill-rule="evenodd"/><path fill="#ffffff" d="m77.767624 161.91759c-0.3592987 0.14926147 3.7006912 0.32199097 -2.1557846 0.89553833c-5.856476 0.57354736 -30.00821 0.40142822 -32.98309 2.5457764c-2.9748802 2.144333 9.20089 8.450394 15.1338005 10.320297c5.932911 1.8699036 15.246948 1.0363617 20.463669 0.8991394c5.216728 -0.13720703 9.030571 -1.435379 10.836685 -1.7224579" fill-rule="evenodd"/><path fill="#ffffff" d="m87.46405 171.26292c-0.33161163 0.20401001 3.1903381 -0.40022278 -1.9896774 1.2241364c-5.180008 1.6243591 -25.967472 6.0935974 -29.090405 8.522003c-3.1229324 2.428421 5.5519485 5.4026947 10.352802 6.048477c4.8008575 0.6457672 13.192879 -1.0911407 18.452332 -2.1738434c5.2594604 -1.0827026 10.9203415 -3.6019897 13.104408 -4.3223877" fill-rule="evenodd"/><path fill="#ffffff" d="m103.20012 174.21243c-0.3147583 0.22930908 3.1048813 -1.1615448 -1.8885651 1.3758087c-4.9934387 2.5373383 -25.313873 10.96727 -28.072098 13.848267c-2.7582169 2.8809967 6.047867 3.8391266 11.522781 3.4376984c5.474907 -0.40142822 14.361641 -4.671463 21.326698 -5.8462524c6.965065 -1.1747742 17.053062 -1.0020447 20.463676 -1.2024689" fill-rule="evenodd"/><path fill="#ffffff" d="m190.86488 51.781193c-0.13601685 -0.36531448 0.4284973 2.829239 -0.8161011 -2.1918907c-1.2445984 -5.0211296 -4.4987335 -24.420752 -6.6515045 -27.93488c-2.152771 -3.5141277 -4.848404 2.1539764 -6.2651215 6.850113c-1.4167328 4.6961365 -2.1660156 15.1620865 -2.2352295 21.326706c-0.06921387 6.1646194 1.5166321 13.050838 1.8199615 15.661007" fill-rule="evenodd"/><path fill="#ffffff" d="m181.25682 61.869106c-0.40142822 -0.7739639 -0.586792 0.33943558 -2.408554 -4.643776c-1.8217621 -4.9832115 -6.2302246 -22.177101 -8.522018 -25.255499c-2.2917938 -3.0783978 -4.3278046 2.2617054 -5.22876 6.7851124c-0.9009552 4.523411 -0.979187 12.531456 -0.17694092 20.35534c0.8022461 7.823883 4.1586914 22.15664 4.9904327 26.587967" fill-rule="evenodd"/><path fill="#ffffff" d="m175.9282 77.684105c-1.4131165 -0.9280319 -4.454788 -0.5928116 -8.478683 -5.568199c-4.02388 -4.9753876 -12.553726 -21.57346 -15.664612 -24.284134c-3.1109009 -2.7106743 -2.9959564 3.0302505 -3.000763 8.020084c-0.0048217773 4.98983 0.28225708 14.554226 2.971878 21.918911c2.6896057 7.364685 10.971481 18.557655 13.165787 22.26918" fill-rule="evenodd"/><path fill="#ffffff" d="m173.86186 93.15903c-1.9728241 -0.48267365 -6.330719 0.9466934 -11.836929 -2.8960342c-5.5062103 -3.8427353 -17.52069 -18.48423 -21.200333 -20.160347c-3.6796265 -1.676117 -2.2249908 4.6203003 -0.8774719 10.103645c1.3475189 5.4833374 5.8324127 16.911026 8.962555 22.796387c3.1301575 5.8853683 8.181976 10.42984 9.818375 12.515808" fill-rule="evenodd"/><path fill="#ffffff" d="m159.45712 105.53962c-0.43693542 -0.28466797 1.763382 1.1314545 -2.6216125 -1.7080154c-4.3849792 -2.83947 -19.858826 -14.427238 -23.688309 -15.328796c-3.8294983 -0.9015503 -1.1459045 5.5062103 0.71136475 9.919487c1.8572693 4.413269 7.0324707 11.475227 10.432251 16.56015c3.3997803 5.084923 8.305359 11.624489 9.966431 13.949379" fill-rule="evenodd"/><path fill="#ffffff" d="m168.43933 126.525734c-2.3634186 -0.68790436 -7.861801 -0.63012695 -14.180481 -4.1274033c-6.318695 -3.4972763 -20.094757 -16.798485 -23.731659 -16.856262c-3.6368942 -0.057769775 0.1907959 11.465004 1.9102325 16.509605c1.7194519 5.0446014 5.368393 10.719322 8.406464 13.758003c3.038086 3.0386658 8.184998 3.7283783 9.821991 4.47406" fill-rule="evenodd"/><path fill="#000000" d="m232.62134 117.372l0 0c0 -1.9863358 1.6102448 -3.5965805 3.5965881 -3.5965805l0 0c0.9538727 0 1.8686676 0.3789215 2.543167 1.0534134c0.67448425 0.6744919 1.0534058 1.5892944 1.0534058 2.543167l0 0c0 1.9863358 -1.6102448 3.5965805 -3.5965729 3.5965805l0 0c-1.9863434 0 -3.5965881 -1.6102448 -3.5965881 -3.5965805z" fill-rule="evenodd"/></g></svg>