<svg width="150" height="150" version="1.1" viewBox="0.0 0.0 480.0 480.0" fill="none" stroke="none" stroke-linecap="square" stroke-miterlimit="10" xmlns:xlink="http://www.w3.org/1999/xlink" xmlns="http://www.w3.org/2000/svg"><clipPath id="p.0"><path d="m0 0l480.0 0l0 480.0l-480.0 0l0 -480.0z" clip-rule="nonzero"/></clipPath><g clip-path="url(#p.0)"><path fill="#000000" fill-opacity="0.0" d="m0 0l480.0 0l0 480.0l-480.0 0z" fill-rule="evenodd"/><path fill="#d9d9d9" d="m469.59033 242.83038l0 0c-56.454224 63.158813 -141.75934 99.605835 -231.66432 98.979706c-89.90498 -0.62612915 -174.57687 -38.256958 -229.9446 -102.194534z" fill-rule="evenodd"/><path fill="#d9d9d9" d="m470.0901 243.287c-54.76718 -65.61789 -139.85144 -104.43143 -230.38501 -105.09642c-90.533554 -0.66500854 -176.29501 36.893585 -232.21857 101.698425z" fill-rule="evenodd"/><path fill="#1c4587" d="m137.49448 239.95471l0 0c0 -56.68048 45.94861 -102.62909 102.629074 -102.62909l0 0c27.218918 0 53.323044 10.812683 72.56972 30.059372c19.246704 19.246689 30.059357 45.350784 30.059357 72.56972l0 0c0 56.68048 -45.948578 102.62909 -102.629074 102.62909l0 0c-56.680466 0 -102.629074 -45.94861 -102.629074 -102.62909z" fill-rule="evenodd"/><path fill="#000000" d="m186.69963 240.00024l0 0c0 -29.43602 23.862595 -53.29863 53.298615 -53.29863l0 0c14.135666 0 27.692398 5.615387 37.68782 15.610809c9.995422 9.995438 15.610809 23.55214 15.610809 37.68782l0 0c0 29.436005 -23.86261 53.298615 -53.29863 53.298615l0 0c-29.43602 0 -53.298615 -23.86261 -53.298615 -53.298615z" fill-rule="evenodd"/><path fill="#ffffff" d="m241.0773 204.88162l0 0c0 -16.609665 13.464798 -30.074463 30.074463 -30.074463l0 0c7.976227 0 15.625793 3.1685638 21.265839 8.808609c5.6400757 5.6400604 8.808624 13.289612 8.808624 21.265854l0 0c0 16.609665 -13.464813 30.074463 -30.074463 30.074463l0 0c-16.609665 0 -30.074463 -13.464798 -30.074463 -30.074463z" fill-rule="evenodd"/></g></svg>