<svg version="1.1" viewBox="0.0 0.0 288.0 288.0" fill="none" stroke="none" stroke-linecap="square" stroke-miterlimit="10" xmlns:xlink="http://www.w3.org/1999/xlink" xmlns="http://www.w3.org/2000/svg"><clipPath id="p.0"><path d="m0 0l288.0 0l0 288.0l-288.0 0l0 -288.0z" clip-rule="nonzero"/></clipPath><g clip-path="url(#p.0)"><path fill="#000000" fill-opacity="0.0" d="m0 0l288.0 0l0 288.0l-288.0 0z" fill-rule="evenodd"/><path fill="#ceb38d" d="m124.27405 47.532578c-8.308395 -2.8057861 -27.36663 0.3403244 -34.69213 -5.046898c-7.325493 -5.3872185 1.9230423 -21.643776 -9.260841 -27.276428c-11.183884 -5.632653 -44.58091 -10.412443 -57.84248 -6.519492c-13.261573 3.892951 -20.413685 15.34746 -21.726955 29.877197c-1.3132706 14.529739 13.937538 34.669876 13.847331 57.30124c-0.090206146 22.63137 -16.651943 68.07626 -14.388572 78.48695c2.2633708 10.41069 13.129777 -3.8126984 27.968798 -16.022842c14.839018 -12.210129 46.397926 -47.642075 61.065323 -57.23797c14.667389 -9.5959015 19.752357 0.169281 26.939034 -0.33740234c7.1866684 -0.5066757 12.306206 4.2034073 16.180992 -2.7026901c3.8747864 -6.90609 8.416183 -30.313583 7.0677643 -38.733864c-1.3484192 -8.42028 -6.849869 -8.982021 -15.158264 -11.787804z" fill-rule="evenodd"/><path fill="#ceb38d" d="m109.923134 122.48597c-1.2775421 -7.8315964 -3.3124695 -17.438622 -1.1457443 -30.154846c2.1667175 -12.716232 12.06955 -34.241104 14.146065 -46.142544c2.0765152 -11.90144 -2.5855408 -18.249891 -1.6869812 -25.266108c0.89855194 -7.0162153 3.3722076 -13.3523655 7.0783005 -16.831184c3.7061005 -3.4788198 9.489288 -3.8730354 15.158264 -4.0417337c5.6689606 -0.16869844 14.646301 -0.0017572753 18.85556 3.0295432c4.209259 3.0313 5.951309 8.926959 6.399994 15.158259c0.44869995 6.2312984 -4.438278 15.942587 -3.70784 22.229536c0.73043823 6.2869453 5.415329 6.8469276 8.090485 15.492138c2.675171 8.64521 6.8592377 24.929298 7.9604645 36.37912c1.1012268 11.449821 -0.041000366 24.307808 -1.3531036 32.31981c-1.3121033 8.012009 -3.6680145 12.040848 -6.5194855 15.752213c-2.851471 3.7113647 -6.0180817 4.8863983 -10.58934 6.515991c-4.5712585 1.6295776 -11.452164 3.125595 -16.838226 3.2614899c-5.3860474 0.13589478 -10.58992 -0.63494873 -15.478073 -2.4461212c-4.8881607 -1.8111725 -10.455795 -4.211609 -13.850853 -8.420868c-3.39505 -4.209259 -5.241951 -9.003098 -6.5194855 -16.834694z" fill-rule="evenodd"/><path fill="#ceb38d" d="m146.1591 3.6586403E-5l-43.10949 0l20.208672 28.671707z" fill-rule="evenodd"/><path fill="#ceb38d" d="m163.71323 47.531387c8.308395 -2.8057823 27.366638 0.34032822 34.692123 -5.046894c7.3255005 -5.3872223 -1.9230347 -21.643776 9.260849 -27.27643c11.183884 -5.632654 44.580902 -10.412443 57.84247 -6.519492c13.261597 3.892951 20.413696 15.347459 21.72696 29.877197c1.3132629 14.529739 -13.9375305 34.669872 -13.847321 57.301243c0.09020996 22.631363 16.651947 68.07627 14.38858 78.486946c-2.2633972 10.41069 -13.129791 -3.8126984 -27.968811 -16.022827c-14.83902 -12.210144 -46.397934 -47.64209 -61.065323 -57.237984c-14.667389 -9.595894 -19.752365 0.169281 -26.939041 -0.3373947c-7.186661 -0.50668335 -12.306198 4.2033997 -16.180984 -2.7026901c-3.8748016 -6.9060974 -8.416183 -30.313591 -7.0677643 -38.733868c1.3484192 -8.42028 6.8498535 -8.982021 15.158264 -11.787807z" fill-rule="evenodd"/></g></svg>