<svg version="1.1" viewBox="0.0 0.0 480.0 480.0" fill="none" stroke="none" stroke-linecap="square" stroke-miterlimit="10" xmlns:xlink="http://www.w3.org/1999/xlink" xmlns="http://www.w3.org/2000/svg"><clipPath id="p.0"><path d="m0 0l480.0 0l0 480.0l-480.0 0l0 -480.0z" clip-rule="nonzero"/></clipPath><g clip-path="url(#p.0)"><path fill="#000000" fill-opacity="0.0" d="m0 0l480.0 0l0 480.0l-480.0 0z" fill-rule="evenodd"/><path fill="#b75c30" d="m39.998455 239.7248l0 0c0 -110.44487 89.533264 -199.97815 199.97815 -199.97815l0 0c53.03749 0 103.902725 21.069069 141.4059 58.572247c37.503174 37.503174 58.572235 88.36841 58.572235 141.4059l0 0c0 110.444885 -89.533264 199.97815 -199.97813 199.97815l0 0c-110.444885 0 -199.97815 -89.533264 -199.97815 -199.97815zm53.978107 0l0 0c0 80.633606 65.36644 146.00006 146.00005 146.00006c80.63359 0 146.00005 -65.366455 146.00005 -146.00006l0 0c0 -80.63359 -65.366455 -146.00005 -146.00005 -146.00005l0 0c-80.633606 0 -146.00005 65.366455 -146.00005 146.00005z" fill-rule="evenodd"/><path fill="#b75c30" d="m168.72818 239.7248l0 0c0 -39.34941 31.899002 -71.24841 71.24843 -71.24841l0 0c18.896255 0 37.01857 7.5065002 50.380234 20.86818c13.361694 13.361664 20.868195 31.483978 20.868195 50.380234l0 0c0 39.349426 -31.899017 71.24844 -71.24843 71.24844l0 0c-39.349426 0 -71.24843 -31.899017 -71.24843 -71.24844zm48.78238 0c0 12.407669 10.058395 22.466064 22.46605 22.466064c12.407654 0 22.46605 -10.058395 22.46605 -22.466064c0 -12.407654 -10.058395 -22.46605 -22.46605 -22.46605l0 0c-12.407654 0 -22.46605 10.058395 -22.46605 22.46605z" fill-rule="evenodd"/><path fill="#b75c30" d="m342.90933 103.33833l35.11734 35.157867l-87.75278 87.79332l-35.11731 -35.157883z" fill-rule="evenodd"/><path fill="#b75c30" d="m189.42212 256.82556l35.117325 35.157867l-87.75276 87.793304l-35.117317 -35.157867z" fill-rule="evenodd"/><path fill="#b75c30" d="m377.90118 343.26337l-35.11731 35.11734l-87.793304 -87.75278l35.11731 -35.11731z" fill-rule="evenodd"/><path fill="#b75c30" d="m224.82974 189.61366l-35.117325 35.117325l-87.7933 -87.75276l35.117317 -35.117317z" fill-rule="evenodd"/><path fill="#b75c30" d="m330.9082 112.31119l-25.790558 -14.882286l42.092133 -72.95158l25.790558 14.882284z" fill-rule="evenodd"/><path fill="#b75c30" d="m363.45834 137.13368l-21.046082 -21.046059l56.56891 -56.528343l21.046051 21.046059z" fill-rule="evenodd"/><path fill="#b75c30" d="m386.12982 172.89307l-14.882294 -25.790543l69.34253 -40.024017l14.882294 25.790543z" fill-rule="evenodd"/><path fill="#b75c30" d="m397.69724 212.92668l-7.7047424 -28.750793l77.93939 -20.883865l7.704712 28.750793z" fill-rule="evenodd"/><path fill="#b75c30" d="m399.14804 254.89749l0 -29.764572l80.85907 0l0 29.764572z" fill-rule="evenodd"/><path fill="#b75c30" d="m388.94543 295.1088l7.7047424 -28.750763l79.11536 21.208252l-7.7047424 28.750793z" fill-rule="evenodd"/><path fill="#b75c30" d="m369.16873 331.94815l14.882263 -25.790527l71.00513 40.997223l-14.882294 25.790558z" fill-rule="evenodd"/><path fill="#b75c30" d="m340.0098 360.6006l21.046051 -21.046051l59.488586 59.488586l-21.046082 21.046051z" fill-rule="evenodd"/><path fill="#b75c30" d="m304.1125 381.00705l25.790558 -14.882294l42.781494 74.16812l-25.790558 14.882294z" fill-rule="evenodd"/><path fill="#b75c30" d="m265.38153 392.06375l28.750793 -7.704712l22.424805 83.73819l-28.750793 7.704712z" fill-rule="evenodd"/><path fill="#b75c30" d="m294.11234 95.534325l-28.750793 -7.704727l22.34372 -83.41378l28.750793 7.704724z" fill-rule="evenodd"/><path fill="#b75c30" d="m254.849 86.797554l-29.764557 0l0 -87.10394l29.764557 0z" fill-rule="evenodd"/><path fill="#b75c30" d="m210.30658 71.619606l-28.750778 7.704727l-18.00473 -67.19331l28.750793 -7.7047243z" fill-rule="evenodd"/><path fill="#b75c30" d="m168.44212 86.52422l-25.790558 14.882286l-35.806694 -62.002754l25.79055 -14.882284z" fill-rule="evenodd"/><path fill="#b75c30" d="m132.28883 110.90482l-21.046059 21.046059l-51.25669 -51.25669l21.046066 -21.046062z" fill-rule="evenodd"/><path fill="#b75c30" d="m103.66104 144.24411l-14.882278 25.790558l-64.27363 -37.144882l14.882284 -25.79055z" fill-rule="evenodd"/><path fill="#b75c30" d="m86.39684 183.19849l-7.7047195 28.750778l-74.289764 -19.91063l7.704725 -28.750778z" fill-rule="evenodd"/><path fill="#b75c30" d="m78.38398 225.28012l0 29.764572l-78.38543 0l0 -29.764572z" fill-rule="evenodd"/><path fill="#b75c30" d="m82.935745 266.4236l7.704727 28.750793l-78.70985 21.086609l-7.704725 -28.750793z" fill-rule="evenodd"/><path fill="#b75c30" d="m95.95288 306.1258l14.882286 25.790527l-71.12677 41.07837l-14.882284 -25.790558z" fill-rule="evenodd"/><path fill="#b75c30" d="m118.6998 339.98267l21.046066 21.046051l-59.204727 59.204712l-21.046066 -21.046051z" fill-rule="evenodd"/><path fill="#b75c30" d="m149.1855 367.6362l25.790543 14.882294l-41.97046 72.70828l-25.790558 -14.882294z" fill-rule="evenodd"/><path fill="#b75c30" d="m185.37462 386.1847l28.750793 7.704712l-21.978745 81.95395l-28.750778 -7.7047424z" fill-rule="evenodd"/><path fill="#b75c30" d="m224.97926 393.66074l29.764572 0l0 86.00903l-29.764572 0z" fill-rule="evenodd"/></g></svg>