<svg width="150" height="150" version="1.1" viewBox="0.0 0.0 288.0 288.0" fill="none" stroke="none" stroke-linecap="square" stroke-miterlimit="10" xmlns:xlink="http://www.w3.org/1999/xlink" xmlns="http://www.w3.org/2000/svg"><clipPath id="p.0"><path d="m0 0l288.0 0l0 288.0l-288.0 0l0 -288.0z" clip-rule="nonzero"/></clipPath><g clip-path="url(#p.0)"><path fill="#000000" fill-opacity="0.0" d="m0 0l288.0 0l0 288.0l-288.0 0z" fill-rule="evenodd"/><path fill="#7cc5ef" d="m89.51034 284.38574c24.083244 4.1906433 81.15319 4.6905518 105.542046 0.6436157c24.38887 -4.046936 33.23767 -11.219879 40.791138 -24.925201c7.5534515 -13.705338 9.386169 -40.903473 4.529648 -57.306747c-4.8565216 -16.403275 -26.761978 -17.480042 -33.668777 -41.112946c-6.9067993 -23.632904 -12.304733 -80.55914 -7.772049 -100.68451c4.5326843 -20.125366 30.327194 -11.434429 34.968155 -20.067684c4.640976 -8.633251 7.9855804 -24.878662 -7.122345 -31.73183c-15.107941 -6.8531694 -56.331192 -9.495465 -83.52528 -9.387182c-27.194092 0.1082825 -65.01707 3.2383552 -79.63925 10.036877c-14.622185 6.798522 -12.194431 22.229286 -8.093864 30.754257c4.100567 8.524967 29.082458 0.21555328 32.697266 20.395565c3.6148148 20.180016 -4.2999268 77.03339 -11.008377 100.68451c-6.708458 23.651123 -24.799732 24.855392 -29.242352 41.222244c-4.4426193 16.366852 -4.337372 43.399017 2.5866356 56.97885c6.924011 13.579834 14.874168 20.30954 38.957413 24.500183z" fill-rule="evenodd"/><defs><linearGradient id="p.1" gradientUnits="userSpaceOnUse" gradientTransform="matrix(14.994554440685222 0.0 0.0 14.994554440685222 0.0 0.0)" spreadMethod="pad" x1="4.871719539951221" y1="2.8383289551705455" x2="4.871665181306246" y2="17.83288339575724"><stop offset="0.0" stop-color="#def3ff"/><stop offset="0.82" stop-color="#7cc5ef"/><stop offset="1.0" stop-color="#7cc5ef"/></linearGradient></defs><path fill="url(#p.1)" d="m97.800224 180.75113c-3.9658813 7.1307983 -14.874893 12.770767 -19.0 21.0c-4.1251144 8.229218 -5.72966 20.104538 -5.750656 28.37532c-0.021003723 8.270782 1.0411148 16.082687 5.624672 21.249344c4.5835495 5.1666565 10.209969 7.1255493 21.87664 9.750671c11.666664 2.6250916 34.040245 5.3127747 48.12336 6.0c14.083115 0.68722534 26.937439 0.060791016 36.37532 -1.876648c9.437881 -1.937439 15.335083 -5.185486 20.251968 -9.748032c4.9168854 -4.562561 8.27034 -9.960632 9.249344 -17.627304c0.9790039 -7.6666565 0.27078247 -20.64392 -3.3753204 -28.372696c-3.646103 -7.7287903 -12.459763 -12.291336 -18.501312 -18.0c-6.041565 -5.708664 -13.998245 -9.189423 -17.748032 -16.251968c-3.7497864 -7.062561 -3.8132172 -14.519257 -4.750656 -26.123367c-0.9374542 -11.604111 -0.85302734 -31.501312 -0.87402344 -43.501312c-0.020996094 -12.0 0.91470337 -19.978127 0.7480316 -28.498688c-0.1666565 -8.520554 -0.08135986 -17.14523 -1.7480316 -22.624668c-1.6666565 -5.479439 -4.335083 -8.293526 -8.251968 -10.251968c-3.9168854 -1.9584427 -9.666229 -1.3740158 -15.249344 -1.4986877c-5.5831146 -0.124671936 -13.541107 -0.62423325 -18.249336 0.7506561c-4.708229 1.3748894 -7.7917786 3.9571304 -10.0 7.4986877c-2.208229 3.5415573 -2.4746323 8.91951 -3.2493439 13.750652c-0.77471924 4.8311462 -0.7047272 6.870079 -1.3989563 15.236221c-0.6942215 8.366142 -1.2152176 21.797462 -2.7664032 34.960632c-1.551178 13.16317 -4.651352 33.051186 -6.54068 44.01838c-1.889328 10.967178 -0.8293991 14.653976 -4.795273 21.784775z" fill-rule="evenodd"/></g></svg>