<svg width="150" height="150" version="1.1" viewBox="0.0 0.0 288.0 288.0" fill="none" stroke="none" stroke-linecap="square" stroke-miterlimit="10" xmlns:xlink="http://www.w3.org/1999/xlink" xmlns="http://www.w3.org/2000/svg"><clipPath id="p.0"><path d="m0 0l288.0 0l0 288.0l-288.0 0l0 -288.0z" clip-rule="nonzero"/></clipPath><g clip-path="url(#p.0)"><path fill="#000000" fill-opacity="0.0" d="m0 0l288.0 0l0 288.0l-288.0 0z" fill-rule="evenodd"/><path fill="#7cc5ef" d="m89.51034 284.38574c24.083244 4.1906433 81.15319 4.6905518 105.542046 0.6436157c24.38887 -4.046936 33.23767 -11.219879 40.791138 -24.925201c7.5534515 -13.705338 9.386169 -40.903473 4.529648 -57.306747c-4.8565216 -16.403275 -26.761978 -17.480042 -33.668777 -41.112946c-6.9067993 -23.632904 -12.304733 -80.55914 -7.772049 -100.68451c4.5326843 -20.125366 30.327194 -11.434429 34.968155 -20.067684c4.640976 -8.633251 7.9855804 -24.878662 -7.122345 -31.73183c-15.107941 -6.8531694 -56.331192 -9.495465 -83.52528 -9.387182c-27.194092 0.1082825 -65.01707 3.2383552 -79.63925 10.036877c-14.622185 6.798522 -12.194431 22.229286 -8.093864 30.754257c4.100567 8.524967 29.082458 0.21555328 32.697266 20.395565c3.6148148 20.180016 -4.2999268 77.03339 -11.008377 100.68451c-6.708458 23.651123 -24.799732 24.855392 -29.242352 41.222244c-4.4426193 16.366852 -4.337372 43.399017 2.5866356 56.97885c6.924011 13.579834 14.874168 20.30954 38.957413 24.500183z" fill-rule="evenodd"/></g></svg>