<svg width="150" height="150" version="1.1" viewBox="0.0 0.0 288.0 288.0" fill="none" stroke="none" stroke-linecap="square" stroke-miterlimit="10" xmlns:xlink="http://www.w3.org/1999/xlink" xmlns="http://www.w3.org/2000/svg"><clipPath id="p.0"><path d="m0 0l288.0 0l0 288.0l-288.0 0l0 -288.0z" clip-rule="nonzero"/></clipPath><g clip-path="url(#p.0)"><path fill="#000000" fill-opacity="0.0" d="m0 0l288.0 0l0 288.0l-288.0 0z" fill-rule="evenodd"/><path fill="#e1c11c" d="m9.711286E-6 142.75592l0 0c0 -78.84192 63.913994 -142.7559 142.7559 -142.7559l0 0c37.86122 0 74.17174 15.040311 100.943665 41.812237c26.771912 26.771927 41.812225 63.082443 41.812225 100.94367l0 0c0 78.8419 -63.913986 142.75589 -142.75589 142.75589l0 0c-78.84192 0 -142.7559 -63.913986 -142.7559 -142.75589z" fill-rule="evenodd"/><path fill="#fbe317" d="m29.392534 142.76262l0 0c0 -62.61257 50.757515 -113.37009 113.37009 -113.37009l0 0c30.067612 0 58.903732 11.944315 80.16475 33.20533c21.261017 21.261017 33.205322 50.097137 33.205322 80.16476l0 0c0 62.612564 -50.757507 113.37007 -113.37007 113.37007l0 0c-62.61257 0 -113.37009 -50.757507 -113.37009 -113.37007z" fill-rule="evenodd"/></g></svg>