<svg version="1.1" viewBox="0.0 0.0 288.0 288.0" fill="none" stroke="none" stroke-linecap="square" stroke-miterlimit="10" xmlns:xlink="http://www.w3.org/1999/xlink" xmlns="http://www.w3.org/2000/svg"><clipPath id="p.0"><path d="m0 0l288.0 0l0 288.0l-288.0 0l0 -288.0z" clip-rule="nonzero"/></clipPath><g clip-path="url(#p.0)"><path fill="#000000" fill-opacity="0.0" d="m0 0l288.0 0l0 288.0l-288.0 0z" fill-rule="evenodd"/><path fill="#e4badb" d="m0.0021582677 149.08955l170.62962 78.56328l105.81427 -66.57773l-163.76694 -52.813705z" fill-rule="evenodd"/><path fill="#e4badb" d="m91.009834 85.88754l0 0c1.2325134 -14.105415 11.557037 -24.737373 23.060486 -23.74715l0 0c5.524147 0.4755211 10.586914 3.6223946 14.074562 8.748333c3.4876404 5.125946 5.1144714 11.811073 4.5225983 18.584732l0 0c-1.2325134 14.105408 -11.557037 24.737373 -23.060486 23.747147l0 0c-11.503441 -0.9902191 -19.829674 -13.2276535 -18.59716 -27.333061z" fill-rule="evenodd"/><path fill="#e4badb" d="m118.69775 63.08518l155.0935 48.705753l-7.6713867 50.17495l-160.19704 -52.323975z" fill-rule="evenodd"/><path fill="#e4badb" d="m251.87144 137.06392l0 0c0 -14.158081 8.087112 -25.635475 18.063095 -25.635475l0 0c4.790619 0 9.38504 2.7008667 12.772522 7.5084534c3.3875122 4.8075867 5.290558 11.328072 5.290558 18.127022l0 0c0 14.158081 -8.087097 25.635483 -18.06308 25.635483l0 0c-9.975983 0 -18.063095 -11.477402 -18.063095 -25.635483z" fill-rule="evenodd"/></g></svg>