<svg width="150" height="150" version="1.1" viewBox="0.0 0.0 480.0 480.0" fill="none" stroke="none" stroke-linecap="square" stroke-miterlimit="10" xmlns:xlink="http://www.w3.org/1999/xlink" xmlns="http://www.w3.org/2000/svg"><clipPath id="p.0"><path d="m0 0l480.0 0l0 480.0l-480.0 0l0 -480.0z" clip-rule="nonzero"/></clipPath><g clip-path="url(#p.0)"><path fill="#000000" fill-opacity="0.0" d="m0 0l480.0 0l0 480.0l-480.0 0z" fill-rule="evenodd"/><path fill="#ffffff" d="m0.0154651655 110.0282c0.113713525 -7.5959244 0.56928277 -17.01841 3.7675648 -26.042542c3.1982822 -9.024139 7.939921 -19.249771 15.422129 -28.10226c7.4822063 -8.852489 16.848911 -17.759335 29.471111 -25.012682c12.6222 -7.2533493 27.699608 -13.709272 46.262093 -18.507412c18.562477 -4.7981377 41.29589 -8.225277 65.112785 -10.281418c23.81691 -2.0561404 51.80188 -1.9417119 77.788635 -2.0554254c25.986755 -0.11371352 55.343445 0.11657424 78.1319 1.3731444c22.788483 1.2565701 42.721252 3.1396372 58.598938 6.166276c15.877716 3.0266395 25.815125 6.967277 36.667267 11.993557c10.852112 5.0262814 19.763977 11.481489 28.445526 18.164127c8.68158 6.6826324 17.304474 15.135338 23.64383 21.93169c6.3393555 6.7963448 11.651001 12.107273 14.392273 18.846401c2.741272 6.7391357 1.8265686 13.6492 2.05542 21.58841c0.22885132 7.9392014 0.5743103 19.136055 -0.6822815 26.04683c-1.2565613 6.910774 -2.2878418 9.078484 -6.857147 15.417839c-4.569275 6.33934 -12.334686 16.163773 -20.558533 22.618256c-8.223846 6.4544983 -20.331818 12.79599 -28.784546 16.108704c-8.452698 3.3127136 -13.992462 3.1396332 -21.931671 3.7675629c-7.939209 0.6279297 -17.079193 1.7707825 -25.703552 0c-8.624359 -1.7707825 -17.817993 -6.2842712 -26.042542 -10.624695c-8.224579 -4.3404236 -16.336853 -10.962997 -23.30484 -15.417847c-6.967987 -4.4548492 -11.535126 -7.2562103 -18.503113 -11.311279c-6.967987 -4.0550537 -15.994263 -10.049698 -23.30484 -13.019119c-7.3105774 -2.9694214 -14.161987 -3.6545715 -20.558533 -4.7974243c-6.396576 -1.1428528 -11.480789 -1.8880692 -17.820847 -2.0597153c-6.3400726 -0.17164612 -14.051132 0.4012146 -20.219559 1.0298615c-6.1684113 0.6286392 -10.622559 0.6858597 -16.790985 2.7419968c-6.1684113 2.056137 -13.251556 5.8251343 -20.219543 9.594849c-6.967987 3.769699 -14.906479 9.253708 -21.58841 13.023407c-6.6819153 3.7697144 -10.278549 5.4825745 -18.503113 9.594849c-8.224564 4.1122894 -20.50634 11.880554 -30.844254 15.078842c-10.337921 3.198288 -21.35955 3.6545715 -31.18325 4.110855c-9.823708 0.45628357 -19.020195 1.0827789 -27.758976 -1.3731537c-8.738773 -2.4559174 -17.420338 -8.107986 -24.673687 -13.3624115c-7.2533474 -5.25441 -13.706411 -11.881271 -18.846405 -18.164124c-5.1399946 -6.282852 -9.480417 -13.021988 -11.993558 -19.532974c-2.5131402 -6.510994 -3.198997 -11.9370575 -3.0852835 -19.532974z" fill-rule="evenodd"/><path fill="#000000" d="m206.31354 72.67415c-1.02771 1.7707825 -14.505264 0.91542816 -21.245117 3.7718582c-6.739853 2.8564224 -13.025558 9.483276 -19.193985 13.366699c-6.1684113 3.8834229 -11.419983 7.2497787 -17.816544 9.9338455c-6.3965607 2.6840668 -13.594849 5.02771 -20.562836 6.1705627c-6.9679947 1.1428604 -14.21991 1.4289322 -21.245117 0.68657684c-7.0252075 -0.74235535 -15.0802765 -2.7985 -20.906128 -5.140709c-5.8258514 -2.3422165 -10.8507 -5.5998535 -14.048981 -8.912567c-3.1982803 -3.3127136 -4.7981415 -6.965851 -5.140709 -10.963699c-0.34256744 -3.9978561 0.22957611 -9.5390625 3.0852814 -13.023415c2.855713 -3.484352 8.394775 -5.54121 14.048988 -7.8827095c5.6542053 -2.3414955 13.07991 -4.909706 19.876259 -6.166275c6.796356 -1.2565689 13.991058 -1.4875755 20.901833 -1.373146c6.910782 0.114429474 13.080627 0.9740753 20.562836 2.059719c7.4822083 1.08564 16.562836 2.6840668 24.330399 4.454136c7.767563 1.7700691 16.049347 3.9964218 22.274979 6.166279c6.225647 2.1698532 16.106552 5.082062 15.078842 6.852844z" fill-rule="evenodd"/><path fill="#000000" d="m273.05408 74.159035c1.02771 1.7707825 14.505249 0.91542816 21.245117 3.7718582c6.7398376 2.8564224 13.025543 9.483276 19.19397 13.366699c6.1684265 3.8834229 11.419983 7.249771 17.816559 9.933838c6.3965454 2.6840744 13.594818 5.0277176 20.562836 6.1705704c6.967987 1.1428604 14.21991 1.4289322 21.245117 0.6865692c7.0252075 -0.74235535 15.080261 -2.7984924 20.906128 -5.140709c5.825836 -2.3422089 10.8506775 -5.5998535 14.048981 -8.9125595c3.1982727 -3.3127136 4.798126 -6.965851 5.140686 -10.963699c0.34259033 -3.9978561 -0.22955322 -9.5390625 -3.085266 -13.023422c-2.855713 -3.484352 -8.394775 -5.5412064 -14.048981 -7.882702c-5.6542053 -2.3414993 -13.079926 -4.909706 -19.876282 -6.166279c-6.796356 -1.2565689 -13.991058 -1.4875717 -20.901825 -1.3731422c-6.9107666 0.11442566 -13.080627 0.9740715 -20.562836 2.0597153c-7.4822083 1.0856438 -16.562836 2.6840668 -24.330414 4.454136c-7.7675476 1.7700691 -16.049316 3.9964218 -22.274963 6.166275c-6.225647 2.1698532 -16.106567 5.0820694 -15.078827 6.852852z" fill-rule="evenodd"/></g></svg>