<svg version="1.1" viewBox="0.0 0.0 288.0 288.0" fill="none" stroke="none" stroke-linecap="square" stroke-miterlimit="10" xmlns:xlink="http://www.w3.org/1999/xlink" xmlns="http://www.w3.org/2000/svg"><clipPath id="p.0"><path d="m0 0l288.0 0l0 288.0l-288.0 0l0 -288.0z" clip-rule="nonzero"/></clipPath><g clip-path="url(#p.0)"><path fill="#000000" fill-opacity="0.0" d="m0 0l288.0 0l0 288.0l-288.0 0z" fill-rule="evenodd"/><path fill="#2f2f2f" d="m106.940025 265.48834c-29.337898 -9.618759 -70.52085 -20.425964 -67.737595 -59.144028c2.7832565 -38.718063 60.982628 -139.6922 84.43714 -173.16435c23.454514 -33.47215 41.819687 -37.367813 56.289932 -27.668541c14.470245 9.699274 17.970016 61.69466 30.53157 85.86419c12.561569 24.169525 32.11743 37.60639 44.8378 59.15296c12.720383 21.54657 38.162613 51.20508 31.48442 70.12645c-6.6781616 18.921371 -41.57959 35.92958 -71.55347 43.40181c-29.973892 7.472229 -78.951904 11.050262 -108.2898 1.4315186z" fill-rule="evenodd"/><defs><radialGradient id="p.1" gradientUnits="userSpaceOnUse" gradientTransform="matrix(12.466910353273647 0.0 0.0 12.466910353273647 0.0 0.0)" spreadMethod="pad" cx="9.546157953512736" cy="10.860234001271348" fx="9.546157953512736" fy="10.860234001271348" r="12.466910362243652"><stop offset="0.0" stop-color="#8c8c8c"/><stop offset="1.0" stop-color="#404040"/></radialGradient></defs><path fill="url(#p.1)" d="m191.78601 50.40896c-6.1412964 11.250656 -32.67279 31.246277 -35.375336 45.690285c-2.70253 14.444008 13.411636 25.792656 19.16011 40.973755c5.748459 15.181107 16.165787 33.75241 15.330704 50.11287c-0.835083 16.360443 -12.873138 35.03018 -20.341202 48.049866c-7.4680634 13.019684 -18.227905 24.172775 -24.467194 30.068222c-6.2392883 5.8954773 -7.3188934 5.1080627 -12.968506 5.304474c-5.649605 0.19641113 -8.842957 1.0818176 -20.92913 -4.1259766c-12.086182 -5.207794 -40.042 -16.557755 -51.58793 -27.120743c-11.545933 -10.562988 -16.361332 -23.18898 -17.687664 -36.257217c-1.3263359 -13.068237 3.2445297 -25.10411 9.72966 -42.15222c6.4851265 -17.048126 19.060368 -41.368774 29.181103 -60.13649c10.120735 -18.767715 21.471565 -37.436134 31.543304 -52.469814c10.071739 -15.033684 20.387573 -29.67498 28.887146 -37.732285c8.4995575 -8.057306 15.084427 -10.464129 22.11023 -10.611549c7.0258026 -0.14741907 15.230103 4.961505 20.044617 9.727035c4.8145294 4.7655296 7.6141815 12.086177 8.842529 18.866142c1.2283325 6.7799664 4.6688538 10.562994 -1.4724426 21.81365z" fill-rule="evenodd"/><path fill="#2f2f2f" d="m101.21675 276.94867c-21.466324 4.509186 -78.65005 -2.6290588 -87.77691 -14.0026245c-9.12686 -11.373581 27.119858 -35.569565 33.015747 -54.23886c5.8958893 -18.669281 -2.5533676 -47.36133 2.359581 -57.7769c4.9129486 -10.415573 16.394573 -11.231842 27.118107 -4.7165375c10.723534 6.51532 26.172356 28.862213 37.2231 43.80841c11.050743 14.946182 31.071297 31.381012 29.081367 45.86876c-1.9899445 14.487747 -19.55468 36.54857 -41.020996 41.057755z" fill-rule="evenodd"/><defs><radialGradient id="p.2" gradientUnits="userSpaceOnUse" gradientTransform="matrix(9.36842836164058 0.0 0.0 9.36842836164058 0.0 0.0)" spreadMethod="pad" cx="5.382330557450203" cy="22.085913793251105" fx="5.382330557450203" fy="22.085913793251105" r="9.368428230285645"><stop offset="0.0" stop-color="#8c8c8c"/><stop offset="1.0" stop-color="#404040"/></radialGradient></defs><path fill="url(#p.2)" d="m81.83048 156.52905c-2.7510986 6.583542 -19.55162 21.96106 -18.863522 30.362198c0.6881027 8.401138 16.703854 10.857391 22.99213 20.044617c6.2882767 9.187241 14.14785 25.694672 14.737526 35.07875c0.5896759 9.384079 -8.153542 15.133423 -11.1994705 21.225708c-3.0459366 6.0923157 3.1430435 13.90332 -7.0761185 15.3280945c-10.219162 1.4247742 -41.219597 -3.1929016 -54.238846 -6.779541c-13.019247 -3.586609 -19.307524 -7.468933 -23.87664 -14.740143c-4.5691166 -7.271225 -4.765967 -17.881897 -3.5380578 -28.887146c1.2279091 -11.005249 6.0909886 -25.451004 10.905512 -37.14435c4.8145237 -11.693359 11.643482 -23.877518 17.981627 -33.015747c6.338146 -9.138245 13.611111 -18.6203 20.047245 -21.81366c6.4361343 -3.193344 13.607613 0.78652954 18.569553 2.6535492c4.9619446 1.8670197 8.942261 5.6006165 11.202103 8.548553c2.259842 2.9479523 5.1080475 2.5555573 2.3569565 9.139114z" fill-rule="evenodd"/></g></svg>