<svg version="1.1" viewBox="0.0 0.0 288.0 288.0" fill="none" stroke="none" stroke-linecap="square" stroke-miterlimit="10" xmlns:xlink="http://www.w3.org/1999/xlink" xmlns="http://www.w3.org/2000/svg"><clipPath id="p.0"><path d="m0 0l288.0 0l0 288.0l-288.0 0l0 -288.0z" clip-rule="nonzero"/></clipPath><g clip-path="url(#p.0)"><path fill="#000000" fill-opacity="0.0" d="m0 0l288.0 0l0 288.0l-288.0 0z" fill-rule="evenodd"/><path fill="#f3f3f3" d="m11.818632 148.32762l0 0c0 -71.79702 58.18888 -130.0 129.9685 -130.0l0 0c34.469788 0 67.52779 13.696388 91.90161 38.07612c24.37381 24.37973 38.066895 57.44574 38.066895 91.92388l0 0c0 71.79701 -58.18889 130.00002 -129.9685 130.00002l0 0c-71.779625 0 -129.9685 -58.203003 -129.9685 -130.00002z" fill-rule="evenodd"/><path fill="#3f9634" d="m142.51303 277.91354c0.82354736 -0.8663635 2.6378021 -1.462616 8.75737 -3.9108582c6.119568 -2.4482117 17.955566 -9.488159 27.959991 -10.778534c10.004425 -1.2903748 26.198746 2.1878052 32.06656 3.0363464c5.867798 0.84851074 4.68956 0.6630249 3.1403046 2.054779c-1.5492554 1.3917847 -7.1556396 4.008209 -12.435852 6.2958984c-5.2802124 2.2877197 -11.953217 6.320862 -19.245422 7.4303284c-7.292206 1.109436 -18.43666 -0.3001709 -24.507812 -0.7736206c-6.0711517 -0.4734497 -9.296555 -1.5079651 -11.919083 -2.0670166c-2.622528 -0.55908203 -4.639618 -0.42095947 -3.8160553 -1.287323z" fill-rule="evenodd"/><path fill="#3f9634" d="m203.76056 261.96408c0.45457458 -0.7165222 2.788147 -1.0329895 7.023636 -4.4429016c4.2354736 -3.4098816 10.28624 -12.606552 18.389267 -16.016449c8.103012 -3.4098969 24.67598 -3.8863983 30.228851 -4.4429016c5.5528564 -0.5565033 4.1197815 -0.39445496 3.0883179 1.1038513c-1.0314941 1.498291 -5.2598267 4.864868 -9.277206 7.88591c-4.0173645 3.0210571 -8.860825 7.80896 -14.826996 10.240372c-5.966156 2.431427 -15.915039 3.4267273 -20.970001 4.348114c-5.054947 0.92141724 -7.0837708 0.95962524 -9.359741 1.1802979c-2.2759857 0.2206726 -4.750717 0.8602295 -4.2961273 0.14370728z" fill-rule="evenodd"/><path fill="#3f9634" d="m241.83951 231.5317c-0.33125305 -1.2837524 1.1706085 -3.7472687 3.348236 -8.956131c2.1776276 -5.2088623 5.1645203 -14.929947 9.717499 -22.297058c4.5529785 -7.3671265 14.15329 -18.07228 17.600372 -21.90567c3.4470825 -3.8333893 2.684204 -3.0735474 3.0822144 -1.0946808c0.39801025 1.9788818 0.14932251 7.9424896 -0.6941223 12.9678955c-0.8434143 5.0253906 -1.2597961 11.505264 -4.366455 17.18451c-3.106659 5.679245 -10.381531 13.083069 -14.273529 16.890976c-3.8919983 3.807907 -6.6760864 4.7547913 -9.078445 5.956482c-2.4023743 1.2016907 -5.0045013 2.5374146 -5.3357697 1.2536774z" fill-rule="evenodd"/><path fill="#3f9634" d="m270.11664 176.1761c-0.16052246 -0.9132538 1.4376526 -2.5919495 1.3117676 -8.255905c-0.12588501 -5.6639557 -3.5184326 -17.653366 -2.067047 -25.727844c1.451416 -8.074478 8.217194 -17.886269 10.775513 -22.719032c2.5582886 -4.8327637 3.5882568 -7.288643 4.5743713 -6.2775497c0.9861145 1.0110931 1.0941467 7.2234116 1.3423462 12.344109c0.24819946 5.1207047 1.5125732 11.951698 0.14675903 18.380089c-1.3657837 6.428406 -6.040039 15.276993 -8.341522 20.190277c-2.3014526 4.9132843 -4.1768494 7.2784424 -5.467224 9.289429c-1.2903748 2.010971 -2.114441 3.6896667 -2.2749634 2.7764282z" fill-rule="evenodd"/><path fill="#3f9634" d="m270.2382 125.944046c-0.52441406 -0.7588272 -0.023468018 -2.7514572 -2.2443848 -8.011284c-2.2209473 -5.2598267 -9.024933 -14.866234 -11.081268 -23.547676c-2.0563354 -8.681442 -1.3173828 -23.300003 -1.2567291 -28.54097c0.060638428 -5.2409744 0.016311646 -4.222744 1.6205902 -2.9048576c1.6043091 1.3178902 5.5059814 6.388645 8.005188 10.812176c2.499176 4.423538 5.727661 9.273117 6.98999 15.729034c1.2623291 6.4559097 0.772583 17.505577 0.5840454 23.006454c-0.18856812 5.5008774 -1.2791748 7.755966 -1.7153931 9.998817c-0.43624878 2.242859 -0.37765503 4.21714 -0.9020386 3.4583054z" fill-rule="evenodd"/><path fill="#3f9634" d="m247.38995 73.45731c-0.68473816 -0.51527405 -0.8268738 -2.4171677 -4.325775 -6.402603c-3.4989166 -3.9854317 -12.311005 -10.460091 -16.667679 -17.509995c-4.356659 -7.049904 -7.989929 -20.15204 -9.472351 -24.789417c-1.4824219 -4.637375 -0.96777344 -3.7772427 0.57780457 -3.0348377c1.545578 0.74240494 5.296692 4.18828 8.695663 7.4892693c3.3989716 3.3009892 8.564102 7.114126 11.698166 12.316671c3.1340637 5.202545 5.560089 14.128605 7.1062164 18.898602c1.5461426 4.7699966 1.7725983 7.5493317 2.1705933 9.721382c0.397995 2.1720505 0.90208435 3.82621 0.21736145 3.3109283z" fill-rule="evenodd"/><path fill="#3f9634" d="m200.55823 35.307755c-1.0325012 -0.2537918 -0.3975067 -1.43153 -4.274719 -3.4644203c-3.8772278 -2.0328903 -13.809784 -5.056488 -18.988586 -8.732914c-5.1788025 -3.676426 -9.062637 -9.481041 -12.084198 -13.325644c-3.0215607 -3.8446016 -6.450821 -9.1778145 -6.045166 -9.741968c0.40567017 -0.56415355 3.8058777 4.591201 8.479126 6.357047c4.6732483 1.7658463 14.395859 1.0554309 19.560379 4.2380314c5.1645355 3.182601 8.88121 11.069539 11.426788 14.857572c2.5455627 3.7880344 3.5255737 6.2352486 3.846634 7.8706303c0.32107544 1.6353836 -0.88775635 2.1954613 -1.9202576 1.9416656z" fill-rule="evenodd"/><path fill="#3f9634" d="m198.38513 237.03036c-0.934845 0.23962402 -1.9052124 2.1557312 -7.2670593 4.7864532c-5.361862 2.630722 -17.32492 5.551758 -24.904068 10.99791c-7.5791473 5.4461365 -17.023712 17.49826 -20.570816 21.678986c-3.547104 4.1807556 -2.6399689 3.5090027 -0.711792 3.4055176c1.9281769 -0.10348511 7.3189087 -2.064087 12.280838 -4.026367c4.961914 -1.9622803 11.981766 -3.6932068 17.490662 -7.747284c5.508896 -4.0540466 11.892029 -12.286026 15.562729 -16.577118c3.6707 -4.291092 5.108261 -7.083084 6.461502 -9.169418c1.3532562 -2.0863495 2.5928497 -3.5883179 1.6580048 -3.3486786z" fill-rule="evenodd"/><path fill="#3f9634" d="m231.61646 199.96935c-0.55345154 0.6360016 -0.018356323 2.3549652 -2.8528748 7.0450287c-2.8345337 4.6900787 -11.40538 13.42247 -14.154297 21.095367c-2.7489014 7.6728973 -2.1455078 20.318192 -2.3391724 24.942017c-0.19364929 4.62381 -0.086639404 3.4628906 1.1772308 2.800888c1.2638702 -0.66200256 3.63974 -3.265152 6.4059753 -6.7729034c2.7662354 -3.5077362 8.169266 -8.259476 10.191452 -14.273544c2.0221863 -6.0140686 1.6017456 -16.542892 1.9416656 -21.810867c0.33992004 -5.26799 0.15951538 -7.6260223 0.097854614 -9.797012c-0.061676025 -2.1710052 0.085617065 -3.8649902 -0.46783447 -3.2289734z" fill-rule="evenodd"/><path fill="#3f9634" d="m251.40555 173.07631c-0.42858887 0.72366333 0.15493774 2.5027618 -1.5288696 7.430313c-1.6837921 4.9275513 -7.185684 14.14003 -8.573898 22.13501c-1.3882294 7.99498 -0.17277527 21.177414 0.24461365 25.83487c0.41737366 4.65744 0.53611755 3.2386475 2.259674 2.1098328c1.7235413 -1.1288147 6.259201 -4.720642 8.081604 -8.882736c1.8224182 -4.162094 2.481369 -10.105835 2.8528748 -16.089844c0.371521 -5.984009 -0.24156189 -14.905991 -0.6237793 -19.814178c-0.3822174 -4.908188 -1.2174835 -7.5144043 -1.6695251 -9.634949c-0.45202637 -2.1205444 -0.61408997 -3.8119812 -1.0426941 -3.0883179z" fill-rule="evenodd"/><path fill="#3f9634" d="m248.54388 117.579765c-0.6237793 0.28691864 -2.4421082 5.0192795 -1.8407593 10.191452c0.60136414 5.1721725 1.9034424 13.474449 5.4488983 20.841576c3.545456 7.3671265 12.76149 18.92131 15.823807 23.36116c3.0623474 4.4398346 1.7098083 4.995331 2.550171 3.277893c0.84036255 -1.7174225 2.6836853 -9.534546 2.4920654 -13.582489c-0.19161987 -4.047943 -0.81692505 -6.863098 -3.6417847 -10.705154c-2.824829 -3.8420563 -10.152222 -8.194748 -13.3072815 -12.347168c-3.1550903 -4.15242 -4.3690186 -9.061111 -5.6231995 -12.567322c-1.2541809 -3.5062103 -1.2781372 -8.756866 -1.9019165 -8.469948z" fill-rule="evenodd"/><path fill="#3f9634" d="m155.12009 19.735598c0.51960754 0.44923782 2.0337067 0.23864937 5.748398 2.3052597c3.7146912 2.0666103 10.278961 7.874506 16.539734 10.094404c6.2607574 2.2198944 17.140732 2.8485413 21.024857 3.2249718c3.8841095 0.3764267 3.1231232 0.11882019 2.2798462 -0.96640396c-0.8432617 -1.0852242 -4.1779175 -3.4407673 -7.3394623 -5.544941c-3.1615448 -2.1041737 -7.023285 -5.505356 -11.629776 -7.080103c-4.606491 -1.5747452 -12.01033 -1.9644794 -16.00914 -2.368372c-3.9987946 -0.40389442 -6.214615 -0.11084747 -7.9837036 -0.05498314c-1.7690735 0.055864334 -3.15036 -0.059070587 -2.6307526 0.39016724z" fill-rule="evenodd"/><path fill="#3f9634" d="m200.25188 44.334854c0.47291565 0.63899994 2.2361145 0.7849426 5.9071655 4.060173c3.6710663 3.2752342 9.611816 11.497578 16.119202 15.591217c6.5074005 4.0936356 18.634369 7.5610886 22.92514 8.970604c4.2907715 1.409523 3.496704 0.9257431 2.8194885 -0.51348114c-0.6772156 -1.4392319 -3.8459015 -4.94442 -6.8827972 -8.121872c-3.0368805 -3.1774597 -6.5357666 -7.99704 -11.338562 -10.942856c-4.8027954 -2.945816 -13.064865 -5.2624435 -17.478195 -6.732044c-4.413315 -1.4696045 -6.9898224 -1.700283 -9.0017395 -2.0855713c-2.0119019 -0.38529205 -3.5426025 -0.86517334 -3.0697021 -0.22616959z" fill-rule="evenodd"/><path fill="#3f9634" d="m238.25447 74.05668c0.13890076 0.8442688 1.7554626 1.8504486 3.6615295 6.7906265c1.9060669 4.940178 3.555069 15.732834 7.774872 22.850449c4.219803 7.1176147 14.127945 16.39708 17.54393 19.855255c3.4159546 3.4581757 2.8933105 2.6047287 2.9519043 0.8937988c0.058563232 -1.7109299 -1.253479 -6.624443 -2.6003723 -11.159363c-1.3468933 -4.5349197 -2.3294373 -10.869301 -5.480957 -16.050179c-3.1515198 -5.1808777 -9.924393 -11.459152 -13.428192 -15.03508c-3.5037842 -3.5759277 -5.8574677 -5.0629044 -7.594589 -6.420494c-1.7371216 -1.3575821 -2.9670258 -2.5692825 -2.828125 -1.7250137z" fill-rule="evenodd"/><path fill="#3f9634" d="m141.58337 278.2563c-0.75883484 -0.7817688 -2.4161224 -1.0615234 -8.375153 -3.4002075c-5.959038 -2.3386536 -17.294601 -9.253754 -27.379036 -10.631775c-10.0844345 -1.3780212 -27.082428 1.6267395 -33.127586 2.3636475c-6.0451584 0.73690796 -4.635536 0.34042358 -3.1433563 2.0578613c1.4921799 1.7174377 6.973694 5.6583557 12.096428 8.246735c5.1227417 2.588379 11.528198 6.263794 18.64 7.283539c7.111801 1.0197449 17.786385 -0.39343262 24.0308 -1.1650085c6.2444153 -0.7715759 10.559402 -2.671936 13.43573 -3.4644165c2.8763123 -0.79244995 4.581009 -0.50860596 3.822174 -1.2903748z" fill-rule="evenodd"/><path fill="#3f9634" d="m80.4303 262.1175c-0.6533356 -0.63397217 -2.853386 -0.15084839 -7.430313 -3.488861c-4.576935 -3.3380432 -11.916023 -13.124863 -20.031273 -16.539337c-8.11525 -3.4144745 -23.36829 -3.4741058 -28.660225 -3.9475555c-5.291933 -0.47343445 -4.124384 -0.39341736 -3.0913773 1.1069031c1.0330067 1.5003357 5.266453 4.86998 9.289423 7.895096c4.02297 3.0251312 8.87306 7.820694 14.848398 10.255676c5.975338 2.434967 15.74279 3.5153809 21.003635 4.3542175c5.260849 0.83883667 8.216156 0.61816406 10.561447 0.678833c2.3452835 0.060638428 4.16362 0.31900024 3.5102844 -0.31497192z" fill-rule="evenodd"/><path fill="#3f9634" d="m43.051285 233.21574c-0.23595428 -0.9208832 -2.242344 -1.5502777 -4.7150383 -7.1581726c-2.4726944 -5.607895 -4.7573357 -19.024765 -10.121128 -26.489227c-5.3637905 -7.4644623 -17.82613 -15.131241 -22.061615 -18.297531c-4.235483 -3.1662903 -3.363517 -3.0944366 -3.351286 -0.70022583c0.012230873 2.3942108 1.6888933 10.00647 3.4246716 15.065506c1.7357788 5.0590363 2.9074044 10.3581085 6.9900002 15.288712c4.082596 4.930603 13.083061 10.851929 17.505577 14.294952c4.422514 3.4430084 6.9747105 5.030487 9.029516 6.363159c2.054802 1.3326721 3.5352592 2.5537262 3.2993011 1.6328278z" fill-rule="evenodd"/><path fill="#3f9634" d="m17.696836 182.00246c0.15849304 -0.9030609 -1.4478397 -2.3544617 -1.2964821 -8.164185c0.15135765 -5.8097076 3.9485645 -17.999908 2.2046318 -26.694092c-1.7439327 -8.694183 -10.111955 -20.9012 -12.668228 -25.470993c-2.556273 -4.5697937 -2.0033312 -3.65757 -2.6694095 -1.9477844c-0.6660783 1.7097931 -1.0814216 7.143402 -1.3270603 12.206512c-0.24563861 5.0631104 -1.4972746 11.815628 -0.14677155 18.172165c1.350503 6.356537 5.97381 15.108307 8.24979 19.967056c2.27598 4.8587494 4.130501 7.1969147 5.406089 9.185455c1.275589 1.9885559 2.0889473 3.6489105 2.2474403 2.7458649z" fill-rule="evenodd"/><path fill="#3f9634" d="m16.89505 119.9431c0.5651722 -0.8179474 0.024971008 -2.9644852 2.4186745 -8.632011c2.3937016 -5.6675262 9.726679 -16.018494 11.9435425 -25.373146c2.2168655 -9.35466 1.4223595 -25.10764 1.3576393 -30.75478c-0.06472397 -5.6471405 -0.13912964 -4.4505463 -1.7459717 -3.1280708c-1.606844 1.3224716 -5.2445393 6.160843 -7.895092 11.062912c-2.6505547 4.902069 -6.527771 11.504761 -8.008229 18.349518c-1.4804573 6.844757 -1.0340261 16.927155 -0.8745146 22.719025c0.15951252 5.7918777 1.3642635 9.406128 1.8315887 12.032219c0.4673252 2.626091 0.40718842 4.5422745 0.9723625 3.7243347z" fill-rule="evenodd"/><path fill="#3f9634" d="m44.73668 64.168686c0.7043266 -0.35172653 1.1508789 -2.0482101 4.9758186 -5.0677643c3.8249397 -3.0195541 13.8248825 -8.209717 17.97382 -13.049561c4.1489334 -4.83984 4.5223007 -12.123669 6.9197845 -15.989481c2.3974838 -3.8658142 8.126221 -6.434517 7.465111 -7.2054005c-0.66111755 -0.77088547 -7.524437 0.24069595 -11.431801 2.5800915c-3.9073715 2.3393955 -8.4162445 6.8976307 -12.012413 11.456282c-3.5961685 4.558647 -7.374531 11.842537 -9.56461 15.895607c-2.1900787 4.05307 -2.8549156 6.526108 -3.5758667 8.422813c-0.7209511 1.8967056 -1.454174 3.3091354 -0.7498436 2.9574127z" fill-rule="evenodd"/><path fill="#3f9634" d="m81.48964 33.37306c0.91018677 -0.024459839 2.6434174 -0.8520889 6.867691 -2.651062c4.2242737 -1.7989712 12.616753 -4.1529236 18.477936 -8.142769c5.861183 -3.9898453 13.295578 -12.129556 16.689163 -15.796299c3.3935852 -3.666743 4.655411 -6.092043 3.672348 -6.2041597c-0.98306274 -0.11211723 -4.719116 3.953152 -9.570732 5.531457c-4.8516235 1.5783048 -14.489624 1.1466537 -19.538979 3.938373c-5.0493546 2.7917185 -8.225327 9.341914 -10.757141 12.811942c-2.531807 3.470028 -3.4603424 6.2561417 -4.4337234 8.008228c-0.97338104 1.7520847 -2.3167496 2.5287533 -1.4065628 2.5042896z" fill-rule="evenodd"/><path fill="#3f9634" d="m90.541405 232.73029c0.9106903 0.32307434 1.7059784 2.321167 6.816292 5.427002c5.1103134 3.105835 16.77742 7.0950775 23.845581 13.208008c7.068161 6.1129456 15.402252 18.981354 18.563385 23.469666c3.1611328 4.4882812 2.3169556 3.7367554 0.40342712 3.460083c-1.9135132 -0.27667236 -7.1129303 -2.7168274 -11.884552 -5.1200867c-4.7716217 -2.4032593 -11.616295 -4.760956 -16.745186 -9.299408c-5.1288986 -4.538452 -10.7537155 -13.321899 -14.028183 -17.93135c-3.2744675 -4.6094513 -4.4568405 -7.523041 -5.618637 -9.725357c-1.1617966 -2.2023163 -2.262825 -3.8116302 -1.3521271 -3.488556z" fill-rule="evenodd"/><path fill="#3f9634" d="m55.30514 199.68315c0.4879036 0.68873596 0.05116272 2.5157776 2.138916 7.3040466c2.0877495 4.7882843 8.413715 13.504929 10.3876 21.425583c1.973877 7.9206543 1.4550095 21.302887 1.4556732 26.098312c6.637573E-4 4.7954254 -0.22431946 3.8341217 -1.4517059 2.674179c-1.2273865 -1.1599121 -3.713478 -5.5175476 -5.912632 -9.6336975c-2.1991577 -4.1161346 -5.9016457 -9.242279 -7.282318 -15.06311c-1.3806686 -5.8208466 -0.9810333 -14.922989 -1.0017128 -19.861923c-0.02067566 -4.9389496 0.5999603 -7.6145325 0.87765884 -9.771774c0.2776947 -2.1572266 0.3006134 -3.8603516 0.7885208 -3.1716156z" fill-rule="evenodd"/><path fill="#3f9634" d="m34.153687 171.80692c0.44881058 0.75849915 -0.16416931 2.6235657 1.599083 7.7843323c1.7632523 5.1607666 7.6031 14.769638 8.980442 23.180283c1.3773422 8.410629 -0.3070259 22.29332 -0.7163887 27.283524c-0.4093666 4.990204 -0.19295502 3.9332123 -1.7397995 2.657669c-1.5468483 -1.275528 -5.604782 -5.8398438 -7.541271 -10.310867c-1.9364853 -4.471039 -3.5067844 -10.303955 -4.077656 -16.51532c-0.57087135 -6.2113647 0.25212097 -15.611832 0.65242577 -20.752869c0.4003029 -5.1410522 1.2755337 -7.872284 1.7493954 -10.093414c0.4738617 -2.221115 0.6449623 -3.9918365 1.0937691 -3.2333374z" fill-rule="evenodd"/><path fill="#3f9634" d="m44.929695 118.91909c-0.099617004 0.84420013 -1.6586075 1.9159164 -3.326706 6.905136c-1.6680946 4.9892197 -2.8158455 15.775261 -6.6818733 23.030174c-3.8660316 7.2549133 -13.280329 16.912659 -16.514301 20.499298c-3.2339725 3.5866394 -2.7538548 2.715973 -2.8895369 1.0205688c-0.1356821 -1.695404 0.944026 -6.6312866 2.0754461 -11.193008c1.1314201 -4.561722 1.8196526 -10.892883 4.7130756 -16.177322c2.893423 -5.284424 9.331646 -11.821777 12.647459 -15.529251c3.315815 -3.707489 5.5846825 -5.2897263 7.2474213 -6.71566c1.6627388 -1.4259262 2.8286285 -2.6841354 2.7290154 -1.8399353z" fill-rule="evenodd"/><path fill="#3f9634" d="m129.09128 21.594814c-0.549881 0.4127941 -2.047676 0.09835625 -5.901451 1.9080315c-3.853775 1.8096733 -10.650627 7.2621384 -17.221207 8.950012c-6.5705795 1.6878738 -18.319954 1.1991463 -22.20227 1.1772308c-3.882309 -0.021915436 -2.1709976 -0.3822174 -1.0916138 -1.308712c1.0793839 -0.9264984 4.288994 -2.4961395 7.567917 -4.250265c3.2789154 -1.7541237 7.394638 -5.0177555 12.105606 -6.2744865c4.7109604 -1.256733 12.136688 -1.1374817 16.160164 -1.2659054c4.0234833 -0.1284256 6.2169037 0.3180046 7.980713 0.4953537c1.7638092 0.17734909 3.1520233 0.15594482 2.6021423 0.56874084z" fill-rule="evenodd"/><path fill="#3f9634" d="m87.711975 39.419857c0.3282013 0.6227608 -1.4070663 6.182247 -4.5254593 9.576851c-3.1183853 3.3946037 -8.120346 8.276291 -14.184868 10.790775c-6.064522 2.5144806 -18.092152 3.7355423 -22.20227 4.2961273c-4.110115 0.560585 -3.309494 0.2553177 -2.4584236 -0.9326134c0.8510704 -1.1879311 5.131912 -4.47908 7.5648575 -6.1949844c2.4329414 -1.7159042 3.3482246 -2.4217339 7.0328064 -4.1004333c3.6845818 -1.6786995 11.361553 -4.705868 15.074673 -5.9717712c3.7131195 -1.2659073 4.920929 -0.3796692 7.2040405 -1.623661c2.2831192 -1.2439919 6.1664505 -6.463051 6.494644 -5.84029z" fill-rule="evenodd"/><path fill="#3f9634" d="m51.355984 64.03542c0.76994324 0.9351425 1.2776566 8.777252 -0.24952698 14.29567c-1.5271797 5.5184174 -3.7532616 12.309296 -8.913567 18.814835c-5.160301 6.505539 -17.843304 16.688103 -22.048252 20.218407c-4.2049494 3.5303116 -3.1179008 2.806572 -3.1814365 0.9634476c-0.06353569 -1.843132 1.1257477 -7.3367157 2.8002186 -12.022224c1.6744709 -4.6855164 3.838171 -11.758263 7.246605 -16.090858c3.408434 -4.3326035 9.9578705 -6.9889984 13.203999 -9.904739c3.246128 -2.9157333 4.4157753 -4.8772736 6.272766 -7.589699c1.8569946 -2.7124252 4.099247 -9.619972 4.869194 -8.684837z" fill-rule="evenodd"/></g></svg>