<svg width="150" height="150" version="1.1" viewBox="0.0 0.0 288.0 288.0" fill="none" stroke="none" stroke-linecap="square" stroke-miterlimit="10" xmlns:xlink="http://www.w3.org/1999/xlink" xmlns="http://www.w3.org/2000/svg"><clipPath id="p.0"><path d="m0 0l288.0 0l0 288.0l-288.0 0l0 -288.0z" clip-rule="nonzero"/></clipPath><g clip-path="url(#p.0)"><path fill="#000000" fill-opacity="0.0" d="m0 0l288.0 0l0 288.0l-288.0 0z" fill-rule="evenodd"/><path fill="#e2bf8c" d="m111.465614 -0.1869672l-3.8671722 33.405807l-8.439613 35.865402l-30.061699 42.198044l-30.590645 32.35086l-20.925648 3.8642273l-14.416687 15.471649l-3.1648533 32.350845l11.251833 22.153976l24.613567 18.98619l21.801346 19.338806l37.622677 8.792252l33.05317 11.604462l19.691452 0.702301l40.96971 -35.160126l9.141937 -10.549515l36.038773 -77.0085l6.329712 -59.77665l17.934158 -38.32793l17.581543 -37.272984l5.27182 -13.361736l-20.211578 -4.569496l-23.91124 1.0549512l-19.341751 14.766377l-46.24153 -1.760211z" fill-rule="evenodd"/><path fill="#e2bf8c" d="m100.74273 237.51793l0 0c0 -27.771652 21.329285 -50.285034 47.640297 -50.285034l0 0c12.6349945 0 24.752487 5.297867 33.686783 14.728149c8.934296 9.430267 13.953522 22.220459 13.953522 35.556885l0 0c0 27.771652 -21.329285 50.28502 -47.640305 50.28502l0 0c-26.311012 0 -47.640297 -22.513367 -47.640297 -50.28502z" fill-rule="evenodd"/></g></svg>