<svg width="150" height="150" version="1.1" viewBox="0.0 0.0 288.0 288.0" fill="none" stroke="none" stroke-linecap="square" stroke-miterlimit="10" xmlns:xlink="http://www.w3.org/1999/xlink" xmlns="http://www.w3.org/2000/svg"><clipPath id="p.0"><path d="m0 0l288.0 0l0 288.0l-288.0 0l0 -288.0z" clip-rule="nonzero"/></clipPath><g clip-path="url(#p.0)"><path fill="#000000" fill-opacity="0.0" d="m0 0l288.0 0l0 288.0l-288.0 0z" fill-rule="evenodd"/><defs><linearGradient id="p.1" gradientUnits="userSpaceOnUse" gradientTransform="matrix(19.791606341849704 0.0 0.0 19.791606341849704 0.0 0.0)" spreadMethod="pad" x1="3.5949309220903443" y1="-6.226533690393897" x2="-6.300955280678206" y2="10.913452244623684"><stop offset="0.0" stop-color="#f4d3a3"/><stop offset="0.64" stop-color="#e2bf8c"/><stop offset="0.68" stop-color="#e2bf8c"/><stop offset="0.78" stop-color="#f4d3a3"/><stop offset="0.89" stop-color="#e2bf8c"/><stop offset="1.0" stop-color="#e2bf8c"/></linearGradient></defs><path fill="url(#p.1)" d="m112.7687 0l-3.9113693 33.79503l-8.537048 36.285774l-30.414734 42.693207l-30.94846 32.727562l-21.171349 3.911377l-14.583351 15.650818l-3.202389 32.730225l11.383616 22.414062l24.899502 19.206375l22.058247 19.56485l38.102055 11.457947l33.59056 14.758606l31.046722 2.798767l28.755112 -25.446503l3.308609 -21.375809l43.003876 -79.90306l7.1801605 -65.57197l18.144196 -38.77652l17.785767 -37.70906l5.334656 -13.518541l-20.449097 -4.6230173l-24.190521 1.0674629l-19.56749 14.939171l-46.7825 -1.7817593z" fill-rule="evenodd"/></g></svg>