<svg version="1.1" viewBox="0.0 0.0 288.0 288.0" fill="none" stroke="none" stroke-linecap="square" stroke-miterlimit="10" xmlns:xlink="http://www.w3.org/1999/xlink" xmlns="http://www.w3.org/2000/svg"><clipPath id="p.0"><path d="m0 0l288.0 0l0 288.0l-288.0 0l0 -288.0z" clip-rule="nonzero"/></clipPath><g clip-path="url(#p.0)"><path fill="#000000" fill-opacity="0.0" d="m0 0l288.0 0l0 288.0l-288.0 0z" fill-rule="evenodd"/><path fill="#000000" d="m17.60633 143.99178l0 0c0 -69.80531 56.588387 -126.39371 126.3937 -126.39371l0 0c33.521698 0 65.670425 13.316441 89.37384 37.01986c23.70343 23.703419 37.019867 55.852146 37.019867 89.37384l0 0c0 69.80531 -56.588394 126.39369 -126.39371 126.39369l0 0c-69.80531 0 -126.3937 -56.58838 -126.3937 -126.39369z" fill-rule="evenodd"/><path fill="#81181a" d="m30.56531 144.0059l0 0c0 -62.656044 50.79277 -113.448814 113.44882 -113.448814l0 0c30.088501 0 58.94464 11.952608 80.22043 33.228386c21.275787 21.275784 33.228394 50.13193 33.228394 80.22043l0 0c0 62.65605 -50.79277 113.44884 -113.44882 113.44884l0 0c-62.65605 0 -113.44882 -50.792786 -113.44882 -113.44884z" fill-rule="evenodd"/><path fill="#e3dcdc" d="m222.2326 14.024508l-4.3240814 26.594673l-130.19366 187.53831l-21.656769 -14.905579l131.25612 -187.36887z" fill-rule="evenodd"/><path fill="#434343" d="m55.415127 270.43634l30.058018 -42.90062l-17.429893 -12.212082l-30.058014 42.900635z" fill-rule="evenodd"/><path fill="#434343" d="m54.701225 271.45645l0 0c3.3726273 -4.8135986 2.2048645 -11.449585 -2.608265 -14.821838l0 0c-2.311348 -1.6194305 -5.1714096 -2.2542572 -7.951004 -1.7648315c-2.7795906 0.48944092 -5.25103 2.0630188 -6.8706207 4.3746033l0 0c-3.3726234 4.813629 -2.2048645 11.449585 2.6082687 14.821869l0 0c4.8131294 3.3722534 11.4489975 2.203827 14.821621 -2.6098022z" fill-rule="evenodd"/><path fill="#e3dcdc" d="m222.2657 14.129821l-144.48059 205.83418l10.959702 7.6788025l130.5155 -186.27968z" fill-rule="evenodd"/><path fill="#434343" d="m106.85774 237.71597l-55.685104 -39.015213l-6.874584 9.811829l55.6851 39.015213z" fill-rule="evenodd"/><path fill="#e3dcdc" d="m65.92246 13.919812l4.2951584 26.60085l129.98994 187.6898l21.67305 -14.88298l-131.05258 -187.52147z" fill-rule="evenodd"/><path fill="#434343" d="m232.46138 270.52667l-30.011414 -42.935593l17.443237 -12.193893l30.011414 42.935577z" fill-rule="evenodd"/><path fill="#434343" d="m233.17418 271.5476l0 0c-3.3674011 -4.8175354 -2.1924133 -11.452637 2.624405 -14.819885l0 0c2.3131104 -1.6170044 5.173874 -2.248764 7.952942 -1.7563019c2.779068 0.49247742 5.2487946 2.0688324 6.8658752 4.3822784l0 0c3.3674011 4.8175354 2.1924133 11.452637 -2.624405 14.819885l0 0c-4.816818 3.3672485 -11.451431 2.1915588 -14.818817 -2.6259766z" fill-rule="evenodd"/><path fill="#e3dcdc" d="m65.88927 14.025095l144.25699 206.00215l-10.968094 7.6673737l-130.31314 -186.43144z" fill-rule="evenodd"/><path fill="#434343" d="m181.05423 237.74873l55.727722 -38.957092l6.863922 9.819809l-55.727722 38.957108z" fill-rule="evenodd"/></g></svg>