<svg width="129" height="150" version="1.1" viewBox="0.0 0.0 414.1443569553806 480.63517060367457" fill="none" stroke="none" stroke-linecap="square" stroke-miterlimit="10" xmlns:xlink="http://www.w3.org/1999/xlink" xmlns="http://www.w3.org/2000/svg"><clipPath id="p.0"><path d="m0 0l414.14435 0l0 480.63516l-414.14435 0l0 -480.63516z" clip-rule="nonzero"/></clipPath><g clip-path="url(#p.0)"><path fill="#000000" fill-opacity="0.0" d="m0 0l414.14435 0l0 480.63516l-414.14435 0z" fill-rule="evenodd"/><path fill="#c57e6f" d="m408.31497 394.48032l-26.22049 37.304474l-27.766388 24.107605l-46.026245 19.729645l-73.06038 4.3805847l-48.220474 -16.073486l-36.53018 -30.685059l-20.018372 -30.220459l-23.377953 -38.72177l-16.805779 -29.225739l-18.26509 -27.761139l-18.26509 -34.338593l-23.380577 -40.186356l-18.703411 -42.10498l-8.76378 -33.606308l-2.910761 -32.391068l6.577428 -29.958008l11.687663 -19.724411l381.3753 305.87927z" fill-rule="evenodd"/><path fill="#c57e6f" d="m21.175854 67.94226l41.643044 -32.87927l46.758533 -22.648293l50.414696 -12.417323l36.53018 2.1889765l24.837265 16.076115l38.721786 49.679794l22.65091 43.83464l30.685059 57.719162l33.606293 45.29921l46.758545 53.330704l11.692902 35.07086l8.036743 59.178497l-4.3595886 30.847748l-10.984253 17.372711l-43.839874 23.380585l-55.52231 21.916016l-47.488205 5.8451233l-23.26509 -3.118103l-20.572174 -15.879272l-29.223099 -30.685028l-29.225723 -40.178467l-32.149605 -71.60104l-28.007874 -56.293976l-23.05774 -31.440948l-13.834648 -20.960632l-8.383202 -15.509186l-10.060368 -27.249344l-13.834646 -35.215218l-6.5643053 -21.55381l2.2047243 -14.12336z" fill-rule="evenodd"/></g></svg>