<svg width="129" height="150" version="1.1" viewBox="0.0 0.0 414.1443569553806 480.63517060367457" fill="none" stroke="none" stroke-linecap="square" stroke-miterlimit="10" xmlns:xlink="http://www.w3.org/1999/xlink" xmlns="http://www.w3.org/2000/svg"><clipPath id="p.0"><path d="m0 0l414.14435 0l0 480.63516l-414.14435 0l0 -480.63516z" clip-rule="nonzero"/></clipPath><g clip-path="url(#p.0)"><path fill="#000000" fill-opacity="0.0" d="m0 0l414.14435 0l0 480.63516l-414.14435 0z" fill-rule="evenodd"/><path fill="#c57e6f" d="m408.31497 394.48032l-26.22049 37.304474l-27.766388 24.107605l-46.026245 19.729645l-73.06038 4.3805847l-48.220474 -16.073486l-36.53018 -30.685059l-20.018372 -30.220459l-23.377953 -38.72177l-16.805779 -29.225739l-18.26509 -27.761139l-18.26509 -34.338593l-23.380577 -40.186356l-18.703411 -42.10498l-8.76378 -33.606308l-2.910761 -32.391068l6.577428 -29.958008l11.687663 -19.724411l381.3753 305.87927z" fill-rule="evenodd"/><path fill="#c57e6f" d="m21.175854 67.94226l41.643044 -32.87927l46.758533 -22.648293l50.414696 -12.417323l36.53018 2.1889765l24.837265 16.076115l38.721786 49.679794l22.65091 43.83464l30.685059 57.719162l33.606293 45.29921l46.758545 53.330704l11.692902 35.07086l8.036743 59.178497l-4.3595886 30.847748l-10.984253 17.372711l-43.839874 23.380585l-55.52231 21.916016l-47.488205 5.8451233l-23.26509 -3.118103l-20.572174 -15.879272l-29.223099 -30.685028l-29.225723 -40.178467l-32.149605 -71.60104l-28.007874 -56.293976l-23.05774 -31.440948l-13.834648 -20.960632l-8.383202 -15.509186l-10.060368 -27.249344l-13.834646 -35.215218l-6.5643053 -21.55381l2.2047243 -14.12336z" fill-rule="evenodd"/><path fill="#6e4942" d="m60.293964 125.02887l6.4514427 27.577423l52.475067 85.04463l27.48294 16.3517l-43.0 -74.0l-7.5013123 -23.501312z" fill-rule="evenodd"/><path fill="#6e4942" d="m141.49081 86.95145l3.5091858 28.590546l45.0 82.49869l21.501312 13.501312l-9.0 -33.0l-36.338577 -61.055115z" fill-rule="evenodd"/><path fill="#6e4942" d="m201.42651 112.83202l1.3858185 21.669289l23.501312 43.0l18.199478 8.16011l-18.199478 -34.6588l-8.501312 -29.0z" fill-rule="evenodd"/><path fill="#6e4942" d="m157.20473 302.61942l4.7978973 32.380585l44.498688 73.50131l23.750656 17.498688l-7.2519684 -25.249329l-42.03412 -63.706055z" fill-rule="evenodd"/><path fill="#6e4942" d="m185.0 279.75067l13.543304 39.900238l44.70604 72.34909l21.750656 18.249329l-34.498688 -70.24933l-11.0 -21.501312z" fill-rule="evenodd"/><path fill="#6e4942" d="m244.51443 243.52756l6.4514465 27.577423l52.475067 85.04462l27.48294 16.351715l-43.0 -74.0l-7.5013123 -23.501312z" fill-rule="evenodd"/><path fill="#6e4942" d="m349.0 271.5013l-19.498688 1.4986877l-23.0 21.055115l-5.4304504 19.19159l31.648285 -23.041992l14.782166 -5.204712z" fill-rule="evenodd"/></g></svg>