<svg width="150" height="150" version="1.1" viewBox="0.0 0.0 288.0 288.0" fill="none" stroke="none" stroke-linecap="square" stroke-miterlimit="10" xmlns:xlink="http://www.w3.org/1999/xlink" xmlns="http://www.w3.org/2000/svg"><clipPath id="p.0"><path d="m0 0l288.0 0l0 288.0l-288.0 0l0 -288.0z" clip-rule="nonzero"/></clipPath><g clip-path="url(#p.0)"><path fill="#000000" fill-opacity="0.0" d="m0 0l288.0 0l0 288.0l-288.0 0z" fill-rule="evenodd"/><path fill="#cdb06a" d="m18.108698 58.07597l25.419844 11.993221l105.91198 28.67273l120.26526 -40.66595l-124.58957 -30.685278z" fill-rule="evenodd"/><path fill="#806135" d="m269.6961 58.042187l-132.27776 38.851284l2.5434265 160.492l-2.3117676 15.955597l6.201721 14.469086l123.083755 -41.602264z" fill-rule="evenodd"/><path fill="#f5c674" d="m18.084568 58.042187l126.34149 36.80978l-0.4584961 163.1947l0 15.974884l0 13.788605l-125.27006 -45.27986z" fill-rule="evenodd"/><path fill="#cdb06a" d="m128.29532 4.3118563l3.7311401 1.7603712l15.545807 4.208598l17.652603 -5.9689693l-18.287323 -4.5040007z" fill-rule="evenodd"/><path fill="#806135" d="m165.22375 4.306632l-19.417923 5.704028l0.37615967 23.553556l-0.37615967 1.5202255l0.4583435 1.6116066l18.554382 -4.772484z" fill-rule="evenodd"/><path fill="#f5c674" d="m128.29372 4.306632l18.544464 5.404375l-0.11546326 20.663288l-0.11122131 4.9417896l0 1.7228279l-18.230652 -5.650898z" fill-rule="evenodd"/><path fill="#cdb06a" d="m162.54297 13.964338l3.7311401 1.7603712l15.545807 4.208598l17.652603 -5.9689693l-18.287323 -4.5040007z" fill-rule="evenodd"/><path fill="#806135" d="m199.4714 13.959114l-19.417923 5.704027l0.37615967 23.553556l-0.37615967 1.5202255l0.45832825 1.6116066l18.554398 -4.772484z" fill-rule="evenodd"/><path fill="#f5c674" d="m162.54135 13.959114l18.54448 5.404375l-0.115478516 20.66329l-0.11122131 4.9417915l0 1.7228241l-18.230637 -5.650898z" fill-rule="evenodd"/><path fill="#cdb06a" d="m197.76671 22.700438l3.7311249 1.7603703l15.545822 4.208599l17.652588 -5.9689693l-18.287308 -4.5040016z" fill-rule="evenodd"/><path fill="#806135" d="m234.69514 22.695213l-19.417923 5.704027l0.37615967 23.553556l-0.37615967 1.5202255l0.45832825 1.6116066l18.554382 -4.772484z" fill-rule="evenodd"/><path fill="#f5c674" d="m197.76509 22.695213l18.54448 5.404375l-0.115478516 20.66329l-0.11122131 4.9417915l0 1.7228241l-18.230637 -5.650898z" fill-rule="evenodd"/><path fill="#cdb06a" d="m233.10265 30.626633l3.7311401 1.7603722l15.545822 4.208599l17.652588 -5.9689713l-18.287323 -4.5039997z" fill-rule="evenodd"/><path fill="#806135" d="m270.03018 30.62171l-19.417923 5.704027l0.37615967 23.553558l-0.37615967 1.5202255l0.81040955 2.186119l18.202301 -5.3469963z" fill-rule="evenodd"/><path fill="#f5c674" d="m233.10104 30.621408l18.544464 5.404375l-0.11546326 20.663288l-0.11122131 4.9417915l0 1.7228279l-18.230652 -5.650898z" fill-rule="evenodd"/><path fill="#cdb06a" d="m197.24669 41.199722l3.7311401 1.7603683l15.545807 4.208599l17.652588 -5.9689674l-18.287308 -4.5040016z" fill-rule="evenodd"/><path fill="#806135" d="m234.17422 41.194798l-19.417923 5.704029l0.37615967 23.553558l-0.37615967 1.5202255l0.8103943 2.186119l18.202316 -5.347z" fill-rule="evenodd"/><path fill="#f5c674" d="m197.24507 41.194496l18.54448 5.404377l-0.115478516 20.663288l-0.11122131 4.9417877l0 1.7228317l-18.230637 -5.650902z" fill-rule="evenodd"/><path fill="#cdb06a" d="m161.65134 51.542355l3.7311401 1.7603722l15.545807 4.208599l17.652588 -5.9689713l-18.287308 -4.5040016z" fill-rule="evenodd"/><path fill="#806135" d="m198.57887 51.537434l-19.417923 5.7040253l0.37615967 23.553562l-0.37615967 1.5202179l0.81040955 2.186119l18.202301 -5.3469925z" fill-rule="evenodd"/><path fill="#f5c674" d="m161.64972 51.537132l18.54448 5.404373l-0.115478516 20.663292l-0.11122131 4.9417877l0 1.7228241l-18.230637 -5.650894z" fill-rule="evenodd"/><path fill="#cdb06a" d="m91.51394 12.815392l3.7311401 1.7603712l15.5458145 4.208598l17.652588 -5.9689693l-18.287315 -4.5040007z" fill-rule="evenodd"/><path fill="#806135" d="m128.44147 12.810469l-19.417915 5.704029l0.37615967 23.553556l-0.37615967 1.5202217l0.81040955 2.186119l18.202309 -5.3469925z" fill-rule="evenodd"/><path fill="#f5c674" d="m91.51233 12.810167l18.544472 5.404375l-0.115470886 20.663288l-0.11122131 4.9417915l0 1.7228279l-18.230644 -5.650898z" fill-rule="evenodd"/><path fill="#cdb06a" d="m54.999207 21.319227l3.7311363 1.7603722l15.545818 4.208597l17.652588 -5.9689693l-18.287315 -4.5039997z" fill-rule="evenodd"/><path fill="#806135" d="m91.92674 21.314304l-19.417923 5.704029l0.37615967 23.553558l-0.37615967 1.5202217l0.8104019 2.186119l18.202316 -5.3469963z" fill-rule="evenodd"/><path fill="#f5c674" d="m54.997597 21.314003l18.544472 5.404375l-0.115470886 20.66329l-0.11122131 4.9417915l0 1.7228241l-18.230644 -5.650898z" fill-rule="evenodd"/><path fill="#cdb06a" d="m17.969278 30.972012l3.7311363 1.7603722l15.545816 4.2085953l17.652592 -5.9689674l-18.28732 -4.5040016z" fill-rule="evenodd"/><path fill="#806135" d="m54.897717 30.966787l-19.417923 5.704027l0.37615967 23.553558l-0.37615967 1.5202217l0.45833206 1.6116104l18.554386 -4.772484z" fill-rule="evenodd"/><path fill="#f5c674" d="m17.967669 30.966787l18.54447 5.404375l-0.115470886 20.663288l-0.1112175 4.9417915l0 1.7228279l-18.230648 -5.650898z" fill-rule="evenodd"/><path fill="#cdb06a" d="m54.05569 41.54389l3.7311363 1.7603722l15.5458145 4.208599l17.652596 -5.9689713l-18.287323 -4.5040016z" fill-rule="evenodd"/><path fill="#806135" d="m90.98413 41.538666l-19.417923 5.704029l0.37615967 23.553555l-0.37615967 1.5202255l0.45833588 1.6116104l18.554382 -4.772484z" fill-rule="evenodd"/><path fill="#f5c674" d="m54.05408 41.538666l18.544468 5.404377l-0.115470886 20.663288l-0.111213684 4.9417953l0 1.7228241l-18.230648 -5.650902z" fill-rule="evenodd"/><path fill="#cdb06a" d="m90.198814 52.11879l3.7311325 1.7603722l15.5458145 4.2085953l17.652596 -5.9689674l-18.287315 -4.5040016z" fill-rule="evenodd"/><path fill="#806135" d="m127.12725 52.113564l-19.417923 5.704029l0.37615967 23.553555l-0.37615967 1.5202255l0.45833588 1.6116104l18.554382 -4.772484z" fill-rule="evenodd"/><path fill="#f5c674" d="m90.197205 52.113564l18.544464 5.404377l-0.11546326 20.663288l-0.11122131 4.9417953l0 1.7228241l-18.230644 -5.650902z" fill-rule="evenodd"/><path fill="#cdb06a" d="m126.11208 62.69429l3.7311325 1.7603683l15.545822 4.208603l17.652588 -5.9689713l-18.287308 -4.5040016z" fill-rule="evenodd"/><path fill="#806135" d="m163.04053 62.689064l-19.417923 5.704033l0.37615967 23.55355l-0.37615967 1.5202255l0.45832825 1.6116104l18.554382 -4.772484z" fill-rule="evenodd"/><path fill="#f5c674" d="m126.11048 62.689064l18.544472 5.404373l-0.115478516 20.663292l-0.11122131 4.9417953l0 1.7228241l-18.230644 -5.650902z" fill-rule="evenodd"/></g></svg>