<svg width="150" height="150" version="1.1" viewBox="0.0 0.0 480.0 480.0" fill="none" stroke="none" stroke-linecap="square" stroke-miterlimit="10" xmlns:xlink="http://www.w3.org/1999/xlink" xmlns="http://www.w3.org/2000/svg"><clipPath id="p.0"><path d="m0 0l480.0 0l0 480.0l-480.0 0l0 -480.0z" clip-rule="nonzero"/></clipPath><g clip-path="url(#p.0)"><path fill="#000000" fill-opacity="0.0" d="m0 0l480.0 0l0 480.0l-480.0 0z" fill-rule="evenodd"/><path fill="#000000" fill-opacity="0.0" d="m14.251968 240.20473l0 0c0 -124.79026 101.1625 -225.95276 225.95276 -225.95276l0 0c59.926407 0 117.39836 23.805668 159.77272 66.18003c42.37436 42.37436 66.18002 99.84632 66.18002 159.77274l0 0c0 124.79027 -101.162476 225.95274 -225.95274 225.95274l0 0c-124.79026 0 -225.95276 -101.162476 -225.95276 -225.95274z" fill-rule="evenodd"/><path stroke="#ffffff" stroke-width="24.0" stroke-linejoin="round" stroke-linecap="butt" stroke-dasharray="96.0,72.0" d="m14.251968 240.20473l0 0c0 -124.79026 101.1625 -225.95276 225.95276 -225.95276l0 0c59.926407 0 117.39836 23.805668 159.77272 66.18003c42.37436 42.37436 66.18002 99.84632 66.18002 159.77274l0 0c0 124.79027 -101.162476 225.95274 -225.95274 225.95274l0 0c-124.79026 0 -225.95276 -101.162476 -225.95276 -225.95274z" fill-rule="evenodd"/></g></svg>