<svg version="1.1" viewBox="0.0 0.0 288.0 288.0" fill="none" stroke="none" stroke-linecap="square" stroke-miterlimit="10" xmlns:xlink="http://www.w3.org/1999/xlink" xmlns="http://www.w3.org/2000/svg"><clipPath id="p.0"><path d="m0 0l288.0 0l0 288.0l-288.0 0l0 -288.0z" clip-rule="nonzero"/></clipPath><g clip-path="url(#p.0)"><path fill="#000000" fill-opacity="0.0" d="m0 0l288.0 0l0 288.0l-288.0 0z" fill-rule="evenodd"/><path fill="#8d453d" d="m131.10304 172.66177l0 0c-1.7462158 -14.586182 5.0759277 -27.726227 15.237701 -29.349106l0 0c4.8798523 -0.7793274 9.89296 1.2557983 13.936493 5.657669c4.0435333 4.401886 6.786255 10.809937 7.624817 17.814468l0 0c1.7462158 14.586182 -5.0759277 27.726227 -15.237701 29.349106l0 0c-10.161774 1.622879 -19.815094 -8.885941 -21.56131 -23.472137z" fill-rule="evenodd"/><path fill="#8d453d" d="m16.371567 164.06935l130.20694 -20.794647l6.3236084 52.821243l-130.20694 20.794647z" fill-rule="evenodd"/><path fill="#f1d891" d="m1.1446651 193.41675l0 0c-1.7462157 -14.586197 5.0759387 -27.726227 15.237709 -29.349121l0 0c4.879854 -0.7793274 9.89296 1.2557983 13.936491 5.657669c4.0435314 4.401886 6.7862606 10.809937 7.6248226 17.814468l0 0c1.7462158 14.586182 -5.075939 27.726227 -15.237707 29.349106l0 0c-10.16177 1.622879 -19.8151 -8.885941 -21.561316 -23.472122z" fill-rule="evenodd"/><path fill="#8d453d" d="m169.08893 177.26782l0 0c-1.7462158 -14.586182 5.075943 -27.726227 15.237717 -29.349121l0 0c4.8798523 -0.7793274 9.89296 1.2557983 13.936493 5.657669c4.043518 4.401886 6.786255 10.809937 7.624817 17.814468l0 0c1.7462158 14.586182 -5.075943 27.726227 -15.237701 29.349106l0 0c-10.161774 1.6228943 -19.81511 -8.885941 -21.561325 -23.472122z" fill-rule="evenodd"/><path fill="#8d453d" d="m54.35746 168.6754l130.20694 -20.794662l6.3236084 52.821243l-130.20694 20.794662z" fill-rule="evenodd"/><path fill="#f1d891" d="m39.13056 198.02278l0 0c-1.7462158 -14.586182 5.075939 -27.726227 15.237709 -29.349106l0 0c4.8798523 -0.77934265 9.89296 1.2557831 13.936485 5.657654c4.0435333 4.401886 6.7862625 10.809937 7.6248245 17.814468l0 0c1.7462158 14.586182 -5.0759354 27.726227 -15.237705 29.349106l0 0c-10.16177 1.6228943 -19.815098 -8.885941 -21.561314 -23.472122z" fill-rule="evenodd"/><path fill="#8d453d" d="m207.63728 181.58163l0 0c-1.7462158 -14.586182 5.0759277 -27.726227 15.237701 -29.349106l0 0c4.8798523 -0.77934265 9.89296 1.2557831 13.936493 5.657654c4.0435333 4.401886 6.786255 10.809937 7.624817 17.814468l0 0c1.7462158 14.586182 -5.0759277 27.726227 -15.237701 29.349106l0 0c-10.161774 1.6228943 -19.815094 -8.885941 -21.56131 -23.472122z" fill-rule="evenodd"/><path fill="#8d453d" d="m92.90581 172.98921l130.20694 -20.794662l6.3236084 52.821243l-130.20694 20.794662z" fill-rule="evenodd"/><path fill="#f1d891" d="m77.6789 202.3366l0 0c-1.7462158 -14.586182 5.075943 -27.726227 15.237709 -29.349106l0 0c4.8798523 -0.77934265 9.89296 1.2557831 13.936493 5.657669c4.0435333 4.4018707 6.7862625 10.809921 7.6248245 17.814453l0 0c1.7462158 14.586182 -5.075943 27.726227 -15.237709 29.349121l0 0c-10.161774 1.622879 -19.815102 -8.885956 -21.561317 -23.472137z" fill-rule="evenodd"/><path fill="#8d453d" d="m246.7977 183.4098l0 0c-1.6977539 -14.57251 5.1708984 -27.749481 15.341553 -29.431595l0 0c4.8841248 -0.80778503 9.89209 1.1974487 13.92218 5.574585c4.03006 4.377121 6.7521667 10.767578 7.5674744 17.765549l0 0c1.6977234 14.57251 -5.170929 27.749481 -15.341583 29.431595l0 0c-10.170654 1.6821136 -19.791885 -8.767624 -21.489624 -23.340134z" fill-rule="evenodd"/><path fill="#8d453d" d="m132.05644 175.49243l130.32079 -21.553589l6.1480713 52.771744l-130.32077 21.553589z" fill-rule="evenodd"/><path fill="#f1d891" d="m116.7257 204.92224l0 0c-1.6977463 -14.57251 5.170906 -27.749481 15.34156 -29.431595l0 0c4.8841248 -0.8077698 9.892075 1.197464 13.922165 5.574585c4.0300903 4.377121 6.752182 10.767578 7.5674744 17.765549l0 0c1.6977386 14.57251 -5.1709137 27.749481 -15.341568 29.431595l0 0c-10.170654 1.6821136 -19.791885 -8.767624 -21.489632 -23.340134z" fill-rule="evenodd"/><path fill="#8d453d" d="m150.15962 125.89608l0 0c-1.7462158 -14.586182 5.075943 -27.726227 15.237701 -29.349106l0 0c4.8798676 -0.779335 9.89296 1.2557831 13.936493 5.6576614c4.0435333 4.401886 6.78627 10.809937 7.624832 17.814468l0 0c1.7462158 14.586182 -5.075943 27.726227 -15.237717 29.349106l0 0c-10.161758 1.622879 -19.815094 -8.885941 -21.56131 -23.47213z" fill-rule="evenodd"/><path fill="#8d453d" d="m35.42815 117.30366l130.20694 -20.794655l6.3236084 52.821243l-130.20694 20.794647z" fill-rule="evenodd"/><path fill="#f1d891" d="m20.201248 146.65105l0 0c-1.7462158 -14.586182 5.075939 -27.726234 15.237709 -29.349113l0 0c4.8798523 -0.779335 9.89296 1.2557907 13.936489 5.657669c4.0435333 4.4018784 6.7862625 10.809929 7.6248245 17.81446l0 0c1.7462158 14.586182 -5.075939 27.726227 -15.237709 29.349106l0 0c-10.161768 1.6228943 -19.815098 -8.885941 -21.561314 -23.472122z" fill-rule="evenodd"/><path fill="#8d453d" d="m169.56589 83.752014l0 0c-1.2975464 -14.65081 5.9227448 -27.513546 16.126953 -28.729721l0 0c4.900238 -0.58402634 9.847305 1.650734 13.752899 6.2126617c3.9055939 4.561928 6.4497833 11.077332 7.072891 18.1129l0 0c1.2975311 14.65081 -5.9227448 27.513542 -16.126968 28.729721l0 0c-10.204208 1.2161713 -19.528229 -9.674751 -20.825775 -24.325562z" fill-rule="evenodd"/><path fill="#8d453d" d="m55.180756 70.57718l130.75084 -15.58334l4.698822 53.05528l-130.75084 15.5833435z" fill-rule="evenodd"/><path fill="#f1d891" d="m39.06465 99.30561l0 0c-1.2975426 -14.65081 5.922741 -27.51355 16.126957 -28.729721l0 0c4.900238 -0.58403015 9.8473015 1.650734 13.752895 6.2126617c3.9055939 4.561928 6.4497833 11.077332 7.0728836 18.1129l0 0c1.2975464 14.65081 -5.922737 27.513542 -16.126957 28.729721l0 0c-10.204216 1.2161713 -19.528236 -9.674751 -20.825779 -24.325562z" fill-rule="evenodd"/><path fill="#8d453d" d="m188.67285 129.91644l0 0c-1.7462158 -14.586174 5.075943 -27.72622 15.237717 -29.349098l0 0c4.8798523 -0.779335 9.89296 1.2557831 13.936478 5.6576614c4.0435333 4.4018784 6.78627 10.809937 7.624832 17.814468l0 0c1.7462158 14.586182 -5.075943 27.726227 -15.237717 29.349106l0 0c-10.161758 1.622879 -19.815094 -8.885941 -21.56131 -23.472137z" fill-rule="evenodd"/><path fill="#8d453d" d="m73.94138 121.32403l130.20694 -20.794655l6.323593 52.821243l-130.20694 20.794647z" fill-rule="evenodd"/><path fill="#f1d891" d="m58.71448 150.67142l0 0c-1.7462158 -14.586197 5.075939 -27.726234 15.237705 -29.349113l0 0c4.87986 -0.779335 9.89296 1.2557831 13.936493 5.6576614c4.0435333 4.401886 6.7862625 10.809937 7.6248245 17.814468l0 0c1.7462158 14.586182 -5.0759354 27.726227 -15.237709 29.349106l0 0c-10.161766 1.622879 -19.815098 -8.885941 -21.561314 -23.472122z" fill-rule="evenodd"/><path fill="#8d453d" d="m227.32652 135.1106l0 0c-1.7462158 -14.586182 5.075943 -27.726227 15.237717 -29.349106l0 0c4.8798523 -0.779335 9.89296 1.2557907 13.936493 5.657669c4.043518 4.4018784 6.786255 10.809929 7.624817 17.814468l0 0c1.7462158 14.586182 -5.0759277 27.726227 -15.237701 29.349106l0 0c-10.161774 1.622879 -19.81511 -8.885956 -21.561325 -23.472137z" fill-rule="evenodd"/><path fill="#8d453d" d="m165.47621 118.07281l77.326584 -12.349419l6.3236084 52.821243l-77.326584 12.349411z" fill-rule="evenodd"/><path fill="#f1d891" d="m97.36816 155.86555l0 0c-1.7462158 -14.586182 5.0759354 -27.726227 15.237709 -29.349106l0 0c4.8798523 -0.779335 9.89296 1.2557907 13.936493 5.657669c4.0435333 4.4018707 6.786255 10.809937 7.624817 17.814468l0 0c1.7462158 14.586182 -5.0759277 27.726227 -15.237701 29.349106l0 0c-10.161774 1.622879 -19.815102 -8.885956 -21.561317 -23.472137z" fill-rule="evenodd"/><path fill="#8d453d" d="m210.23793 90.446724l0 0c-0.9408417 -14.686859 6.588608 -27.317928 16.817505 -28.212288l0 0c4.912094 -0.42948914 9.802475 1.9603577 13.595322 6.643799c3.7928467 4.683441 6.177475 11.27684 6.6292877 18.32972l0 0c0.9408417 14.6868515 -6.588623 27.317924 -16.81752 28.212288l0 0c-10.228897 0.8943558 -19.283752 -10.286667 -20.224594 -24.973518z" fill-rule="evenodd"/><path fill="#8d453d" d="m140.13652 69.8334l87.17134 -7.6218147l3.4071045 53.185802l-87.17136 7.6218185z" fill-rule="evenodd"/><path fill="#f1d891" d="m79.421074 101.884674l0 0c-0.9408417 -14.6868515 6.5886154 -27.317924 16.817513 -28.212288l0 0c4.9120865 -0.42948914 9.802467 1.9603577 13.595322 6.6438065c3.7928467 4.683441 6.1774673 11.276833 6.62928 18.329712l0 0c0.9408417 14.6868515 -6.5886154 27.317924 -16.817505 28.212288l0 0c-10.228897 0.8943634 -19.28376 -10.286659 -20.22461 -24.973518z" fill-rule="evenodd"/></g></svg>