<svg version="1.1" viewBox="0.0 0.0 288.0 288.0" fill="none" stroke="none" stroke-linecap="square" stroke-miterlimit="10" xmlns:xlink="http://www.w3.org/1999/xlink" xmlns="http://www.w3.org/2000/svg"><clipPath id="p.0"><path d="m0 0l288.0 0l0 288.0l-288.0 0l0 -288.0z" clip-rule="nonzero"/></clipPath><g clip-path="url(#p.0)"><path fill="#000000" fill-opacity="0.0" d="m0 0l288.0 0l0 288.0l-288.0 0z" fill-rule="evenodd"/><path fill="#8d453d" d="m133.1836 174.18594l0 0c-1.9401093 -14.561325 4.7064667 -27.790848 14.845535 -29.54898l0 0c4.8689575 -0.8442688 9.908585 1.1238251 14.010239 5.471344c4.1016693 4.3475037 6.929352 10.718323 7.861023 17.710907l0 0c1.9401093 14.561325 -4.7064667 27.790863 -14.845535 29.54898l0 0c-10.139069 1.7581177 -19.931168 -8.620926 -21.871262 -23.182251z" fill-rule="evenodd"/><path fill="#8d453d" d="m18.350342 167.12338l129.91602 -22.527557l7.0257263 52.73123l-129.91602 22.527542z" fill-rule="evenodd"/><path fill="#f1d891" d="m3.5155876 196.67049l0 0c-1.9401014 -14.561325 4.7064714 -27.790848 14.845536 -29.54898l0 0c4.868952 -0.84428406 9.9085865 1.1238251 14.010244 5.4713287c4.101658 4.347519 6.929352 10.718323 7.861023 17.710922l0 0c1.9401016 14.561325 -4.7064705 27.790848 -14.845537 29.54898l0 0c-10.139066 1.7581177 -19.931164 -8.620926 -21.871267 -23.182251z" fill-rule="evenodd"/><path fill="#8d453d" d="m171.22736 178.28665l0 0c-1.940094 -14.561325 4.7064667 -27.790848 14.845535 -29.54898l0 0c4.8689575 -0.8442688 9.908585 1.1238251 14.010254 5.471344c4.101654 4.3475037 6.929352 10.718323 7.861023 17.710907l0 0c1.940094 14.561325 -4.706482 27.790863 -14.845551 29.54898l0 0c-10.139053 1.7581177 -19.931152 -8.620926 -21.871262 -23.182251z" fill-rule="evenodd"/><path fill="#8d453d" d="m56.394108 171.22409l129.91602 -22.527542l7.0257416 52.731216l-129.91603 22.527542z" fill-rule="evenodd"/><path fill="#f1d891" d="m41.559353 200.7712l0 0c-1.9401016 -14.561325 4.7064705 -27.790848 14.845535 -29.54898l0 0c4.8689537 -0.8442688 9.908588 1.1238251 14.010242 5.471344c4.1016617 4.3475037 6.929352 10.718323 7.861023 17.710907l0 0c1.9401016 14.561325 -4.7064667 27.790863 -14.845535 29.54898l0 0c-10.139065 1.7581177 -19.931164 -8.620926 -21.871265 -23.182251z" fill-rule="evenodd"/><path fill="#8d453d" d="m209.82964 182.08769l0 0c-1.9401093 -14.561325 4.7064667 -27.790863 14.845535 -29.54898l0 0c4.8689575 -0.84428406 9.908585 1.1238251 14.010239 5.4713287c4.1016693 4.347519 6.929352 10.718323 7.861023 17.710922l0 0c1.9401093 14.561325 -4.7064667 27.790848 -14.845535 29.54898l0 0c-10.139053 1.7581177 -19.931168 -8.620926 -21.871262 -23.182251z" fill-rule="evenodd"/><path fill="#8d453d" d="m94.99638 175.02513l129.91602 -22.527557l7.0257263 52.73123l-129.91602 22.527542z" fill-rule="evenodd"/><path fill="#f1d891" d="m80.16163 204.57224l0 0c-1.9401016 -14.561325 4.7064743 -27.790863 14.845535 -29.54898l0 0c4.8689575 -0.84428406 9.908592 1.1238251 14.010246 5.4713287c4.1016617 4.347519 6.929352 10.718323 7.861023 17.710922l0 0c1.9401016 14.561325 -4.7064743 27.790848 -14.845535 29.54898l0 0c-10.139069 1.7581177 -19.931168 -8.620926 -21.87127 -23.182251z" fill-rule="evenodd"/><path fill="#8d453d" d="m247.18044 181.3687l0 0c-2.3850403 -14.476807 3.8520203 -27.964325 13.930862 -30.125214l0 0c4.840027 -1.0376892 9.936829 0.7287903 14.169128 4.910858c4.2322693 4.1820526 7.253418 10.437103 8.398743 17.389114l0 0c2.3850403 14.476807 -3.8520203 27.964325 -13.930847 30.125198l0 0c-10.078857 2.1608887 -20.182846 -7.8231506 -22.567886 -22.299957z" fill-rule="evenodd"/><path fill="#8d453d" d="m132.20268 178.8812l129.14442 -27.688263l8.637024 52.42517l-129.14444 27.688263z" fill-rule="evenodd"/><path fill="#f1d891" d="m118.28253 209.0041l0 0c-2.3850403 -14.476807 3.8520203 -27.964325 13.930862 -30.125214l0 0c4.840042 -1.0376892 9.936813 0.7287903 14.169113 4.910858c4.2323 4.1820526 7.253433 10.437103 8.398773 17.389114l0 0c2.3850403 14.476807 -3.8520203 27.964325 -13.930878 30.125198l0 0c-10.078842 2.1608887 -20.182823 -7.8231506 -22.567871 -22.299957z" fill-rule="evenodd"/><path fill="#8d453d" d="m150.10371 126.19109l0 0c-1.9401093 -14.561325 4.7064667 -27.790848 14.845535 -29.548973l0 0c4.8689423 -0.8442764 9.908585 1.1238174 14.010239 5.4713364c4.101654 4.3475113 6.929352 10.718323 7.861023 17.710915l0 0c1.9401093 14.561325 -4.7064667 27.790848 -14.845535 29.54898l0 0c-10.139069 1.7581177 -19.931168 -8.620926 -21.871262 -23.182259z" fill-rule="evenodd"/><path fill="#8d453d" d="m35.27046 119.12853l129.91602 -22.52755l7.0257263 52.73123l-129.91602 22.527542z" fill-rule="evenodd"/><path fill="#f1d891" d="m20.435705 148.67564l0 0c-1.9401016 -14.56134 4.7064705 -27.790863 14.845537 -29.54898l0 0c4.86895 -0.84428406 9.908585 1.1238174 14.010242 5.4713287c4.101658 4.347519 6.929352 10.718323 7.861023 17.710922l0 0c1.9401016 14.561325 -4.7064705 27.790848 -14.845535 29.548965l0 0c-10.139069 1.7581329 -19.931166 -8.620911 -21.871267 -23.182236z" fill-rule="evenodd"/><path fill="#8d453d" d="m168.96303 83.78941l0 0c-1.4926758 -14.632172 5.5558167 -27.590225 15.743256 -28.942627l0 0c4.8921814 -0.6494446 9.868744 1.5190201 13.834885 6.0283585c3.966156 4.5093384 6.5970154 10.990173 7.3138275 18.016785l0 0c1.4926605 14.632172 -5.555832 27.590225 -15.743271 28.942627l0 0c-10.187439 1.3524017 -19.656036 -9.412979 -21.148697 -24.045143z" fill-rule="evenodd"/><path fill="#8d453d" d="m54.408833 72.14403l130.53581 -17.328884l5.4054413 52.987774l-130.5358 17.32888z" fill-rule="evenodd"/><path fill="#f1d891" d="m38.676407 101.08521l0 0c-1.492672 -14.632172 5.5558243 -27.590225 15.743259 -28.942627l0 0c4.8921814 -0.6494446 9.86874 1.5190201 13.834888 6.0283585c3.966156 4.5093384 6.5970154 10.990173 7.31382 18.016785l0 0c1.4926758 14.632172 -5.5558243 27.590225 -15.743259 28.942627l0 0c-10.187439 1.3524017 -19.656036 -9.4129715 -21.148708 -24.045143z" fill-rule="evenodd"/><path fill="#8d453d" d="m188.66698 129.69917l0 0c-1.940094 -14.561317 4.706482 -27.790848 14.845535 -29.548965l0 0c4.8689575 -0.84428406 9.908585 1.1238174 14.010254 5.4713287c4.101654 4.347519 6.929352 10.718323 7.861023 17.710922l0 0c1.940094 14.561325 -4.706482 27.790848 -14.845551 29.548965l0 0c-10.139053 1.7581329 -19.931152 -8.620911 -21.871262 -23.182251z" fill-rule="evenodd"/><path fill="#8d453d" d="m73.833725 122.63662l129.91602 -22.52755l7.0257416 52.73123l-129.91602 22.527542z" fill-rule="evenodd"/><path fill="#f1d891" d="m58.998974 152.18372l0 0c-1.9401016 -14.561325 4.7064705 -27.790848 14.845539 -29.548973l0 0c4.86895 -0.8442764 9.908585 1.1238174 14.010246 5.4713364c4.101654 4.347519 6.929352 10.718323 7.8610153 17.710922l0 0c1.9401016 14.561325 -4.7064667 27.790848 -14.845535 29.548965l0 0c-10.139061 1.7581329 -19.931164 -8.620926 -21.871265 -23.182251z" fill-rule="evenodd"/><path fill="#8d453d" d="m227.38628 134.37907l0 0c-1.940094 -14.561325 4.706482 -27.790855 14.845551 -29.548973l0 0c4.8689423 -0.84428406 9.908585 1.1238174 14.010239 5.4713287c4.101654 4.347519 6.929352 10.718323 7.861023 17.710915l0 0c1.940094 14.561325 -4.706482 27.790863 -14.845535 29.54898l0 0c-10.139069 1.7581177 -19.931168 -8.620926 -21.871277 -23.182251z" fill-rule="evenodd"/><path fill="#8d453d" d="m165.31604 118.16736l77.15381 -13.378532l7.0257263 52.731224l-77.15381 13.37854z" fill-rule="evenodd"/><path fill="#f1d891" d="m97.71828 156.86362l0 0c-1.9401016 -14.561325 4.7064743 -27.790848 14.845535 -29.54898l0 0c4.86895 -0.8442764 9.908585 1.1238251 14.010246 5.4713287c4.1016617 4.347519 6.9293594 10.718323 7.8610153 17.710922l0 0c1.9401093 14.561325 -4.7064667 27.790863 -14.845528 29.54898l0 0c-10.139069 1.7581177 -19.931168 -8.620926 -21.87127 -23.182251z" fill-rule="evenodd"/><path fill="#8d453d" d="m209.72539 89.95311l0 0c-1.137207 -14.673187 6.222641 -27.403606 16.438705 -28.434196l0 0c4.9059296 -0.49490738 9.827866 1.8295937 13.683044 6.4621353c3.8551636 4.6325455 6.327774 11.193657 6.873886 18.239967l0 0c1.1372223 14.67318 -6.222641 27.403603 -16.438705 28.434196l0 0c-10.216064 1.0305862 -19.419708 -10.028923 -20.55693 -24.702103z" fill-rule="evenodd"/><path fill="#8d453d" d="m139.35422 70.27545l87.06198 -8.782749l4.118225 53.136295l-87.06198 8.782753z" fill-rule="evenodd"/><path fill="#f1d891" d="m79.07266 103.13326l0 0c-1.1372147 -14.67318 6.222641 -27.403603 16.438705 -28.434189l0 0c4.9059296 -0.4949112 9.827866 1.8295898 13.683037 6.4621353c3.8551712 4.632538 6.3277817 11.193649 6.8738937 18.23996l0 0c1.1372147 14.673187 -6.2226486 27.40361 -16.438705 28.434196l0 0c-10.216064 1.0305862 -19.419716 -10.028915 -20.55693 -24.702103z" fill-rule="evenodd"/></g></svg>